<svg width="33" height="36" viewBox="0 0 33 36" fill="none" xmlns="http://www.w3.org/2000/svg">
<g clip-path="url(#clip0)">
<path d="M11.0531 0L11.9966 10.2273L11.0531 25.4988H8.04476C7.42042 25.4988 6.84182 25.1305 6.53513 24.5365C6.22843 23.9426 6.23939 23.2116 6.56348 22.6289L9.83468 16.7436H1.74785C1.10353 16.7436 0.51656 16.3577 0.215664 15.7363C-0.0852321 15.1143 -0.0459287 14.3678 0.317466 13.7872L8.38819 0.828006C8.71099 0.309272 9.24642 0 9.82115 0L11.0531 0Z" fill="#33E7D2"/>
<path d="M21.5799 11.7242L13.6774 24.6574C13.3552 25.1846 12.8166 25.4988 12.236 25.4988H11.0537V0H14.4518C15.0942 0 15.6806 0.383779 15.9821 1.00303C16.2836 1.62157 16.2476 2.36664 15.888 2.94722L12.2753 8.78615H20.1386C20.7784 8.78615 21.3641 9.16852 21.6663 9.78425C21.9678 10.3993 21.9349 11.1429 21.5799 11.7242Z" fill="#33E7D2"/>
<path d="M24.3067 15.5459L25.0635 23.7498L24.3067 36H21.8936C21.3927 36 20.9286 35.7045 20.6826 35.2281C20.4366 34.7517 20.4453 34.1653 20.7053 33.6979L23.3294 28.9769H16.8424C16.3256 28.9769 15.8548 28.6673 15.6134 28.1689C15.372 27.6699 15.4035 27.0711 15.695 26.6054L22.169 16.2101C22.428 15.7939 22.8575 15.5459 23.3185 15.5459H24.3067Z" fill="#4D89FF"/>
<path d="M32.7513 24.9506L26.4122 35.3251C26.1538 35.748 25.7217 36 25.2561 36H24.3076V15.5459H27.0335C27.5488 15.5459 28.0191 15.8538 28.261 16.3505C28.5028 16.8467 28.4739 17.4443 28.1855 17.9101L25.2876 22.5939H31.5952C32.1084 22.5939 32.5782 22.9006 32.8206 23.3945C33.0625 23.8878 33.0361 24.4843 32.7513 24.9506Z" fill="#4D89FF"/>
</g>
<defs>
<clipPath id="clip0">
<rect width="33" height="36" fill="white"/>
</clipPath>
</defs>
</svg>
