<svg width="75" height="76" viewBox="0 0 75 76" fill="none" xmlns="http://www.w3.org/2000/svg">
<g clip-path="url(#clip0)">
<path d="M21.7254 68.7725C21.7254 69.3829 21.2354 69.8728 20.6292 69.8728C20.0188 69.8728 19.5289 69.3829 19.5289 68.7725V60.2393C19.5289 59.633 20.0188 59.1389 20.6292 59.1389C21.2355 59.1389 21.7254 59.633 21.7254 60.2393V68.7725ZM7.03022 56.2738C6.42393 56.2738 5.92969 55.7838 5.92969 55.1777C5.92969 54.5714 6.42393 54.0773 7.03022 54.0773H15.5673C16.1735 54.0773 16.6635 54.5714 16.6635 55.1777C16.6635 55.784 16.1733 56.2738 15.5673 56.2738H7.03022ZM7.03022 22.5275C6.42393 22.5275 5.92969 22.0375 5.92969 21.4313C5.92969 20.8209 6.42393 20.331 7.03022 20.331H15.5673C16.1735 20.331 16.6635 20.8209 16.6635 21.4313C16.6635 22.0376 16.1733 22.5275 15.5673 22.5275H7.03022ZM7.03022 30.9653C6.42393 30.9653 5.92969 30.4753 5.92969 29.8649C5.92969 29.2587 6.42393 28.7686 7.03022 28.7686H15.5673C16.1735 28.7686 16.6635 29.2587 16.6635 29.8649C16.6635 30.4753 16.1733 30.9653 15.5673 30.9653H7.03022ZM7.03022 39.4028C6.42393 39.4028 5.92969 38.9087 5.92969 38.3024C5.92969 37.6961 6.42393 37.2062 7.03022 37.2062H15.5673C16.1735 37.2062 16.6635 37.6962 16.6635 38.3024C16.6635 38.9085 16.1733 39.4028 15.5673 39.4028H7.03022ZM7.03022 47.8403C6.42393 47.8403 5.92969 47.346 5.92969 46.7399C5.92969 46.1336 6.42393 45.6395 7.03022 45.6395H15.5673C16.1735 45.6395 16.6635 46.1337 16.6635 46.7399C16.6635 47.346 16.1733 47.8403 15.5673 47.8403H7.03022ZM19.5287 7.83232C19.5287 7.22603 20.0187 6.73193 20.6291 6.73193C21.2354 6.73193 21.7252 7.22603 21.7252 7.83232V16.3696C21.7252 16.9759 21.2353 17.4659 20.6291 17.4659C20.0187 17.4659 19.5287 16.9759 19.5287 16.3696V7.83232ZM53.2751 7.83232C53.2751 7.22603 53.7691 6.73193 54.3754 6.73193C54.9817 6.73193 55.4716 7.22603 55.4716 7.83232V16.3696C55.4716 16.9759 54.9816 17.4659 54.3754 17.4659C53.7691 17.4659 53.2751 16.9759 53.2751 16.3696V7.83232ZM44.8374 7.83232C44.8374 7.22603 45.3315 6.73193 45.9378 6.73193C46.5441 6.73193 47.0382 7.22603 47.0382 7.83232V16.3696C47.0382 16.9759 46.5441 17.4659 45.9378 17.4659C45.3315 17.4659 44.8374 16.9759 44.8374 16.3696V7.83232ZM36.404 7.83232C36.404 7.22603 36.894 6.73193 37.5001 6.73193C38.1063 6.73193 38.6005 7.22603 38.6005 7.83232V16.3696C38.6005 16.9759 38.1064 17.4659 37.5001 17.4659C36.8939 17.4659 36.404 16.9759 36.404 16.3696V7.83232ZM27.9662 7.83232C27.9662 7.22603 28.4564 6.73193 29.0625 6.73193C29.6728 6.73193 30.1629 7.22603 30.1629 7.83232V16.3696C30.1629 16.9759 29.6728 17.4659 29.0625 17.4659C28.4562 17.4659 27.9662 16.9759 27.9662 16.3696V7.83232ZM67.9701 54.0773C68.5806 54.0773 69.0706 54.5714 69.0706 55.1777C69.0706 55.784 68.5806 56.2738 67.9701 56.2738H59.4371C58.8308 56.2738 58.3367 55.7838 58.3367 55.1777C58.3367 54.5714 58.8308 54.0773 59.4371 54.0773H67.9701ZM67.9701 20.331C68.5806 20.331 69.0706 20.8209 69.0706 21.4313C69.0706 22.0376 68.5806 22.5275 67.9701 22.5275H59.4371C58.8308 22.5275 58.3367 22.0375 58.3367 21.4313C58.3367 20.8209 58.8308 20.331 59.4371 20.331H67.9701ZM67.9701 28.7685C68.5806 28.7685 69.0706 29.2586 69.0706 29.8647C69.0706 30.4751 68.5806 30.9651 67.9701 30.9651H59.4371C58.8308 30.9651 58.3367 30.4751 58.3367 29.8647C58.3367 29.2586 58.8308 28.7685 59.4371 28.7685H67.9701ZM67.9701 37.2062C68.5806 37.2062 69.0706 37.6962 69.0706 38.3024C69.0706 38.9085 68.5806 39.4028 67.9701 39.4028H59.4371C58.8308 39.4028 58.3367 38.9087 58.3367 38.3024C58.3367 37.6961 58.8308 37.2062 59.4371 37.2062H67.9701ZM67.9701 45.6395C68.5806 45.6395 69.0706 46.1337 69.0706 46.7399C69.0706 47.346 68.5806 47.8403 67.9701 47.8403H59.4371C58.8308 47.8403 58.3367 47.346 58.3367 46.7399C58.3367 46.1336 58.8308 45.6395 59.4371 45.6395H67.9701ZM55.4716 68.7725C55.4716 69.3829 54.9816 69.8728 54.3754 69.8728C53.7691 69.8728 53.2751 69.3829 53.2751 68.7725V60.2393C53.2751 59.633 53.7691 59.1389 54.3754 59.1389C54.9817 59.1389 55.4716 59.633 55.4716 60.2393V68.7725ZM47.038 68.7725C47.038 69.3829 46.5439 69.8728 45.9377 69.8728C45.3314 69.8728 44.8373 69.3829 44.8373 68.7725V60.2393C44.8373 59.633 45.3314 59.1389 45.9377 59.1389C46.5439 59.1389 47.038 59.633 47.038 60.2393V68.7725ZM38.6005 68.7725C38.6005 69.3829 38.1064 69.8728 37.5001 69.8728C36.8939 69.8728 36.404 69.3829 36.404 68.7725V60.2393C36.404 59.633 36.894 59.1389 37.5001 59.1389C38.1063 59.1389 38.6005 59.633 38.6005 60.2393V68.7725ZM30.1629 68.7725C30.1629 69.3829 29.6728 69.8728 29.0625 69.8728C28.4562 69.8728 27.9662 69.3829 27.9662 68.7725V60.2393C27.9662 59.633 28.4564 59.1389 29.0625 59.1389C29.6728 59.1389 30.1629 59.633 30.1629 60.2393V68.7725Z" fill="#4D89FF"/>
<path d="M20.6291 17.3696H54.3753C56.6057 17.3696 58.4371 19.1979 58.4371 21.4314V55.1777C58.4371 57.4074 56.6052 59.2393 54.3753 59.2393H20.6291C18.3957 59.2393 16.5674 57.408 16.5674 55.1777V21.4314C16.5674 19.1974 18.3952 17.3696 20.6291 17.3696Z" stroke="#4D89FF" stroke-width="2"/>
<path fill-rule="evenodd" clip-rule="evenodd" d="M24.2872 23.9186H50.7127C51.3563 23.9186 51.8837 24.4459 51.8837 25.0896V51.5151C51.8837 52.1587 51.3562 52.6861 50.7127 52.6861H24.2872C23.6436 52.6861 23.1162 52.1586 23.1162 51.5151V25.0896C23.1162 24.4459 23.6436 23.9186 24.2872 23.9186Z" fill="#4D89FF"/>
<path fill-rule="evenodd" clip-rule="evenodd" d="M0 55.1777C0 53.0349 1.73994 51.2952 3.88242 51.2952C6.02505 51.2952 7.76089 53.035 7.76089 55.1777C7.76089 57.3201 6.02505 59.0558 3.88242 59.0558C1.73994 59.0558 0 57.3201 0 55.1777ZM54.3751 0.802368C56.5179 0.802368 58.2536 2.54216 58.2536 4.68479C58.2536 6.82742 56.5179 8.56311 54.3751 8.56311C52.2325 8.56311 50.4927 6.82742 50.4927 4.68479C50.4927 2.54216 52.2325 0.802368 54.3751 0.802368V0.802368ZM37.5 0.802368C39.6426 0.802368 41.3824 2.54216 41.3824 4.68479C41.3824 6.82742 39.6426 8.56311 37.5 8.56311C35.3574 8.56311 33.6217 6.82742 33.6217 4.68479C33.6217 2.54216 35.3574 0.802368 37.5 0.802368V0.802368ZM20.629 0.802368C22.7716 0.802368 24.5073 2.54216 24.5073 4.68479C24.5073 6.82742 22.7716 8.56311 20.629 8.56311C18.4821 8.56311 16.7464 6.82742 16.7464 4.68479C16.7464 2.54216 18.4821 0.802368 20.629 0.802368V0.802368ZM75 21.4313C75 19.2846 73.2643 17.5489 71.1217 17.5489C68.979 17.5489 67.2391 19.2846 67.2391 21.4313C67.2391 23.5739 68.979 25.3096 71.1217 25.3096C73.2643 25.3096 75 23.5739 75 21.4313ZM75 38.3024C75 36.1597 73.2643 34.424 71.1217 34.424C68.979 34.424 67.2391 36.1597 67.2391 38.3024C67.2391 40.445 68.979 42.1848 71.1217 42.1848C73.2643 42.1848 75 40.445 75 38.3024ZM75 55.1777C75 53.0349 73.2643 51.2952 71.1217 51.2952C68.979 51.2952 67.2391 53.035 67.2391 55.1777C67.2391 57.3201 68.979 59.0558 71.1217 59.0558C73.2643 59.0558 75 57.3201 75 55.1777ZM54.3751 75.8024C56.5179 75.8024 58.2536 74.0667 58.2536 71.924C58.2536 69.7814 56.5179 68.0416 54.3751 68.0416C52.2325 68.0416 50.4927 69.7814 50.4927 71.924C50.4927 74.0667 52.2325 75.8024 54.3751 75.8024ZM37.5 75.8024C39.6426 75.8024 41.3824 74.0667 41.3824 71.924C41.3824 69.7814 39.6426 68.0416 37.5 68.0416C35.3574 68.0416 33.6217 69.7814 33.6217 71.924C33.6217 74.0667 35.3574 75.8024 37.5 75.8024ZM20.629 75.8024C22.7716 75.8024 24.5073 74.0667 24.5073 71.924C24.5073 69.7814 22.7716 68.0416 20.629 68.0416C18.4821 68.0416 16.7464 69.7814 16.7464 71.924C16.7464 74.0667 18.4821 75.8024 20.629 75.8024ZM0 21.4313C0 19.2846 1.73994 17.5489 3.88242 17.5489C6.02505 17.5489 7.76089 19.2846 7.76089 21.4313C7.76089 23.5739 6.02505 25.3096 3.88242 25.3096C1.73994 25.3096 0 23.5739 0 21.4313ZM0 38.3024C0 36.1597 1.73994 34.424 3.88242 34.424C6.02505 34.424 7.76089 36.1597 7.76089 38.3024C7.76089 40.445 6.02505 42.1848 3.88242 42.1848C1.73994 42.1848 0 40.445 0 38.3024Z" fill="#33E7D2"/>
<path d="M34.8338 30.168V28.727C34.8338 28.1207 35.3279 27.6309 35.9342 27.6309C36.5405 27.6309 37.0346 28.1208 37.0346 28.727V30.168H39.3309V28.727C39.3309 28.1207 39.8209 27.6309 40.4313 27.6309C41.0376 27.6309 41.5274 28.1208 41.5274 28.727V30.3008C42.362 30.5043 43.1095 30.9361 43.7033 31.5215C44.5463 32.3604 45.0696 33.5145 45.0696 34.7852C45.0696 36.1472 44.4633 37.4261 43.4209 38.3022C44.4633 39.1784 45.0696 40.4573 45.0696 41.8236C45.0696 43.0901 44.5463 44.2442 43.7033 45.0832C43.1095 45.6728 42.3621 46.1046 41.5274 46.3081V47.8778C41.5274 48.4839 41.0375 48.9782 40.4313 48.9782C39.8209 48.9782 39.3309 48.4839 39.3309 47.8778V46.4409H37.0346V47.8778C37.0346 48.4839 36.5405 48.9782 35.9342 48.9782C35.3279 48.9782 34.8338 48.4839 34.8338 47.8778V46.4409H31.0301C30.4238 46.4409 29.9297 45.9467 29.9297 45.3405C29.9297 44.7342 30.4238 44.2401 31.0301 44.2401H32.1806V38.3024V32.3645H31.0301C30.4238 32.3645 29.9297 31.8745 29.9297 31.2682C29.9297 30.6578 30.4238 30.1678 31.0301 30.1678C32.2967 30.168 33.5673 30.168 34.8338 30.168ZM40.4312 39.4028H34.3771V44.2403H40.4312C41.1038 44.2403 41.7142 43.9705 42.1585 43.5303C42.5987 43.0942 42.8728 42.488 42.8728 41.8237C42.8728 41.155 42.5987 40.553 42.1585 40.1128C41.7142 39.6726 41.1037 39.4028 40.4312 39.4028ZM40.4312 32.3645H34.3771V37.2061H40.4312C41.1038 37.2061 41.7142 36.932 42.1585 36.4918C42.5987 36.0559 42.8728 35.4496 42.8728 34.7852C42.8728 34.1208 42.5987 33.5145 42.1585 33.0744C41.7142 32.6386 41.1037 32.3645 40.4312 32.3645Z" fill="white"/>
</g>
<defs>
<clipPath id="clip0">
<rect width="75" height="75" fill="white" transform="translate(0 0.802368)"/>
</clipPath>
</defs>
</svg>
