<svg width="75" height="71" viewBox="0 0 75 71" fill="none" xmlns="http://www.w3.org/2000/svg">
<path fill-rule="evenodd" clip-rule="evenodd" d="M1.171 28.4735H9.21416C9.85781 28.4735 10.385 29.0396 10.385 29.7303V46.2733C10.385 46.9639 9.85767 47.5299 9.21416 47.5299H1.171C0.527344 47.5299 0 46.9639 0 46.2733V29.7303C0 29.0395 0.52749 28.4735 1.171 28.4735Z" fill="#4D89FF"/>
<path fill-rule="evenodd" clip-rule="evenodd" d="M17.3273 22.9698H25.3664C26.0141 22.9698 26.5413 23.5358 26.5413 24.2309V46.2733C26.5413 46.964 26.014 47.5299 25.3664 47.5299H17.3273C16.6795 47.5299 16.1523 46.964 16.1523 46.2733V24.231C16.1523 23.5358 16.6795 22.9698 17.3273 22.9698Z" fill="#4D89FF"/>
<path fill-rule="evenodd" clip-rule="evenodd" d="M33.4806 28.4735H41.5236C42.1671 28.4735 42.6944 29.0396 42.6944 29.7303V46.2733C42.6944 46.9639 42.1671 47.5299 41.5236 47.5299H33.4806C32.8371 47.5299 32.3096 46.9639 32.3096 46.2733V29.7303C32.3094 29.0395 32.8369 28.4735 33.4806 28.4735Z" fill="#4D89FF"/>
<path fill-rule="evenodd" clip-rule="evenodd" d="M49.6328 17.4701H57.6759C58.3196 17.4701 58.8469 18.0362 58.8469 18.7269V46.2732C58.8469 46.9638 58.3194 47.5298 57.6759 47.5298H49.6328C48.9891 47.5298 48.4619 46.9638 48.4619 46.2732V18.727C48.4619 18.0362 48.9891 17.4701 49.6328 17.4701Z" fill="#4D89FF"/>
<path fill-rule="evenodd" clip-rule="evenodd" d="M65.7861 22.9698H73.8292C74.4729 22.9698 75.0002 23.5358 75.0002 24.2309V46.2733C75.0002 46.964 74.4727 47.5299 73.8292 47.5299H65.7861C65.1424 47.5299 64.6152 46.964 64.6152 46.2733V24.231C64.6151 23.5358 65.1424 22.9698 65.7861 22.9698Z" fill="#4D89FF"/>
<path fill-rule="evenodd" clip-rule="evenodd" d="M37.4998 70.8023C46.6185 70.8023 54.0554 62.8204 54.0554 53.0336C54.0554 43.2472 46.6185 35.2651 37.4998 35.2651C28.3812 35.2651 20.9443 43.247 20.9443 53.0336C20.9443 62.8205 28.3812 70.8023 37.4998 70.8023Z" fill="#33E7D2"/>
<path fill-rule="evenodd" clip-rule="evenodd" d="M37.4998 35.2653C37.8694 35.2653 38.2349 35.2788 38.6002 35.3055V37.7433C38.6002 38.3939 38.1061 38.9196 37.4998 38.9196C36.8935 38.9196 36.4037 38.3937 36.4037 37.7433V35.3055C36.7648 35.2788 37.1303 35.2653 37.4998 35.2653ZM48.404 39.6639C48.9564 40.1808 49.4754 40.738 49.957 41.3307L48.3501 43.0555C47.9224 43.5146 47.229 43.5146 46.7971 43.0555C46.3693 42.5919 46.3693 41.8476 46.7971 41.3841L48.404 39.6639ZM54.0179 51.8527C54.0429 52.2448 54.0554 52.6371 54.0554 53.0337C54.0554 53.4304 54.0429 53.8227 54.0179 54.2104H51.7466C51.1403 54.2104 50.6505 53.6843 50.6505 53.0337C50.6505 52.383 51.1405 51.8527 51.7466 51.8527H54.0179ZM49.9569 64.7324C49.4752 65.3251 48.9562 65.882 48.4038 66.4035L46.7969 64.6788C46.3692 64.2153 46.3692 63.4711 46.7969 63.012C47.2287 62.5485 47.9222 62.5485 48.3499 63.012L49.9569 64.7324ZM38.6002 70.7621C38.2349 70.7845 37.8696 70.8022 37.4998 70.8022C37.1303 70.8022 36.7648 70.7845 36.4037 70.7621V68.3242C36.4037 67.6735 36.8937 67.1432 37.4998 67.1432C38.106 67.1432 38.6002 67.6735 38.6002 68.3242V70.7621ZM26.5957 66.4035C26.0476 65.8821 25.5286 65.3251 25.0428 64.7324L26.6498 63.0121C27.0775 62.5487 27.775 62.5487 28.2028 63.0121C28.6305 63.4712 28.6305 64.2153 28.2028 64.6789L26.5957 66.4035ZM20.9818 54.2104C20.9609 53.8225 20.9443 53.4304 20.9443 53.0337C20.9443 52.6372 20.9569 52.2448 20.9818 51.8527H23.2531C23.8594 51.8527 24.3535 52.383 24.3535 53.0337C24.3535 53.6845 23.8594 54.2104 23.2531 54.2104H20.9818ZM25.0428 41.3307C25.5286 40.738 26.0476 40.1808 26.5957 39.6639L28.2026 41.384C28.6304 41.8475 28.6304 42.5917 28.2026 43.0554C27.7749 43.5144 27.0773 43.5144 26.6496 43.0554L25.0428 41.3307Z" fill="white"/>
<path d="M5.52276 17.6484C4.94561 17.8444 4.32686 17.5012 4.1442 16.8774C3.96563 16.258 4.28541 15.5983 4.86256 15.4021L21.0154 9.89823C21.2438 9.82261 21.4762 9.82701 21.688 9.90264L37.3466 15.2372L53.0675 4.52362C53.3498 4.33197 53.6861 4.29644 53.9851 4.39439L70.1379 9.89823C70.7193 10.0943 71.0389 10.7538 70.8563 11.3778C70.6736 11.9972 70.0548 12.3404 69.4777 12.1444L53.8106 6.80987L38.1105 17.5058C37.8448 17.6974 37.5002 17.7599 37.1722 17.6484L21.3476 12.2601L5.52276 17.6484Z" fill="#4D89FF"/>
<path fill-rule="evenodd" clip-rule="evenodd" d="M69.809 6.3064C72.2341 6.3064 74.2023 8.41876 74.2023 11.0215C74.2023 13.6286 72.2341 15.7411 69.809 15.7411C67.3799 15.7411 65.4116 13.6286 65.4116 11.0215C65.4117 8.41876 67.3799 6.3064 69.809 6.3064ZM37.4996 11.8102C39.9287 11.8102 41.897 13.9182 41.897 16.5255C41.897 19.1281 39.9289 21.2404 37.4996 21.2404C35.0745 21.2404 33.1065 19.1279 33.1065 16.5255C33.1065 13.9182 35.0745 11.8102 37.4996 11.8102ZM5.19419 11.8102C7.61939 11.8102 9.5874 13.9182 9.5874 16.5255C9.5874 19.1281 7.61924 21.2404 5.19419 21.2404C2.76504 21.2404 0.796875 19.1279 0.796875 16.5255C0.796729 13.9182 2.76504 11.8102 5.19419 11.8102Z" fill="#33E7D2"/>
<path fill-rule="evenodd" clip-rule="evenodd" d="M21.3473 6.30638C23.7724 6.30638 25.7404 8.41874 25.7404 11.0215C25.7404 13.6286 23.7722 15.7411 21.3473 15.7411C18.9182 15.7411 16.9541 13.6286 16.9541 11.0215C16.9541 8.41874 18.9182 6.30638 21.3473 6.30638ZM53.6527 0.802368C56.0818 0.802368 58.0503 2.91505 58.0503 5.51762C58.0503 8.12475 56.0818 10.2371 53.6527 10.2371C51.2276 10.2371 49.2596 8.12475 49.2596 5.51762C49.2595 2.91489 51.2276 0.802368 53.6527 0.802368Z" fill="#33E7D2"/>
<path fill-rule="evenodd" clip-rule="evenodd" d="M40.1247 51.8526H34.818V47.4496H40.1247C40.6976 47.4496 41.2167 47.6947 41.5905 48.0956C41.9642 48.4923 42.1967 49.045 42.1967 49.6511C42.1967 50.2572 41.9642 50.8054 41.5905 51.2066C41.2167 51.603 40.6976 51.8526 40.1247 51.8526ZM41.2208 43.8308C41.2208 43.1801 40.7308 42.6498 40.1247 42.6498C39.5184 42.6498 39.0243 43.1801 39.0243 43.8308V45.0918H36.9024V43.8308C36.9024 43.1801 36.4125 42.6498 35.8063 42.6498C35.2 42.6498 34.7059 43.1801 34.7059 43.8308V45.0918H31.708C31.1015 45.0918 30.6074 45.6179 30.6074 46.2684C30.6074 46.9192 31.1015 47.4495 31.708 47.4495H32.6214V58.6133H31.708C31.1015 58.6133 30.6074 59.1436 30.6074 59.7943C30.6074 60.445 31.1015 60.9753 31.708 60.9753H34.7059V62.2321C34.7059 62.8828 35.2 63.4131 35.8063 63.4131C36.4126 63.4131 36.9024 62.8828 36.9024 62.2321V60.9753H39.0243V62.2321C39.0243 62.8828 39.5184 63.4131 40.1247 63.4131C40.731 63.4131 41.2208 62.8828 41.2208 62.2321V60.8193C41.9559 60.6099 42.6118 60.1953 43.1349 59.6339C43.9116 58.8095 44.3932 57.6685 44.3932 56.4118C44.3932 55.1149 43.8741 53.8983 42.9771 53.0336C43.8741 52.1647 44.3932 50.948 44.3932 49.6511C44.3932 48.3987 43.9116 47.258 43.1349 46.429C42.6118 45.8719 41.9557 45.4531 41.2208 45.2437V43.8308ZM34.8181 54.2103H40.1248C40.6977 54.2103 41.2168 54.4598 41.5907 54.8608C41.9644 55.2573 42.1968 55.8057 42.1968 56.4118C42.1968 57.0178 41.9644 57.5706 41.5907 57.9673C41.2168 58.3685 40.6977 58.6134 40.1248 58.6134H34.8181V54.2103Z" fill="white"/>
</svg>
