<svg width="96" height="96" viewBox="0 0 96 96" fill="none" xmlns="http://www.w3.org/2000/svg">
<g clip-path="url(#clip0)">
<path d="M57 0H11C4.92 0 0 4.92 0 11V73C0 79.08 4.92 84 11 84H40.52L41.4 79.08C41.8 76.84 42.84 74.84 44.44 73.2L68 49.68V11C68 4.92 63.08 0 57 0V0ZM16 16H32C34.2 16 36 17.8 36 20C36 22.2 34.2 24 32 24H16C13.8 24 12 22.2 12 20C12 17.8 13.8 16 16 16ZM36 56H16C13.8 56 12 54.2 12 52C12 49.8 13.8 48 16 48H36C38.2 48 40 49.8 40 52C40 54.2 38.2 56 36 56ZM52 40H16C13.8 40 12 38.2 12 36C12 33.8 13.8 32 16 32H52C54.2 32 56 33.8 56 36C56 38.2 54.2 40 52 40Z" fill="#4D89FF"/>
<path d="M50.1117 95.9999C49.3237 95.9999 48.5557 95.6879 47.9917 95.1199C47.2997 94.4279 46.9877 93.4439 47.1597 92.4759L49.2797 80.4559C49.3837 79.8519 49.6797 79.2919 50.1117 78.8559L79.8117 49.1599C83.4597 45.5039 87.0437 46.4919 89.0037 48.4519L93.9518 53.3999C96.6838 56.1279 96.6838 60.5679 93.9518 63.2999L64.2517 92.9999C63.8197 93.4359 63.2597 93.7279 62.6517 93.8319L50.6317 95.9519C50.4597 95.9839 50.2837 95.9999 50.1117 95.9999ZM62.1317 90.8799H62.1717H62.1317Z" fill="#33E7D2"/>
</g>
<defs>
<clipPath id="clip0">
<rect width="96" height="96" fill="white"/>
</clipPath>
</defs>
</svg>
