<svg width="89" height="89" viewBox="0 0 89 89" fill="none" xmlns="http://www.w3.org/2000/svg">
<path d="M89 28.334V23.6406C89 18.2645 84.6418 13.9062 79.2656 13.9062H9.73438C4.35822 13.9062 0 18.2645 0 23.6406V28.334C0 28.8139 0.389201 29.2031 0.869141 29.2031H88.1309C88.6108 29.2031 89 28.8139 89 28.334Z" fill="#33E7D2"/>
<path d="M0 35.6348V65.3594C0 70.7355 4.35822 75.0938 9.73438 75.0938H79.2656C84.6418 75.0938 89 70.7355 89 65.3594V35.6348C89 35.1548 88.6108 34.7656 88.1309 34.7656H0.869141C0.389201 34.7656 0 35.1548 0 35.6348ZM22.25 58.4062C22.25 59.9422 21.0047 61.1875 19.4688 61.1875H16.6875C15.1516 61.1875 13.9062 59.9422 13.9062 58.4062V55.625C13.9062 54.0891 15.1516 52.8438 16.6875 52.8438H19.4688C21.0047 52.8438 22.25 54.0891 22.25 55.625V58.4062Z" fill="#4D89FF"/>
</svg>
