<svg width="111" height="111" viewBox="0 0 111 111" fill="none" xmlns="http://www.w3.org/2000/svg">
<path d="M66.2124 54.919C81.3535 54.919 93.6697 42.6006 93.6697 27.4595C93.6697 12.3184 81.3535 0 66.2124 0C51.0713 0 38.7529 12.3184 38.7529 27.4595C38.7529 42.6006 51.0713 54.919 66.2124 54.919ZM62.9605 11.319V10.5732C62.9605 8.77594 64.4152 7.32123 66.2124 7.32123C68.0075 7.32123 69.4644 8.77594 69.4644 10.5732V11.3233C73.3342 12.1536 76.2458 15.6007 76.2458 19.7155C76.2458 21.5106 74.7889 22.9675 72.9938 22.9675C71.1966 22.9675 69.7419 21.5106 69.7419 19.7155C69.7419 18.5687 68.8075 17.6343 67.6606 17.6343H64.7447C63.5979 17.6343 62.6635 18.5687 62.6635 19.7155C62.6635 20.3724 62.9778 20.9968 63.5068 21.387L66.2124 23.3902L72.7857 28.2551C74.945 29.8529 76.2458 32.409 76.2631 35.0972V35.1276C76.2783 37.4213 75.4003 39.5849 73.7873 41.2174C72.5906 42.4293 71.0947 43.2423 69.4644 43.5848V44.3458C69.4644 46.143 68.0075 47.5978 66.2124 47.5978C64.4152 47.5978 62.9605 46.143 62.9605 44.3458V43.5957C61.3735 43.2575 59.9145 42.477 58.7351 41.3106C57.1026 39.6998 56.1964 37.5492 56.1834 35.2555C56.1726 33.4604 57.6186 31.9949 59.4137 31.984H59.4353C61.2218 31.984 62.6765 33.4279 62.6873 35.2165C62.6916 36.3388 63.5946 37.2847 64.7794 37.2847C66.5762 37.2739 65.907 37.2778 67.691 37.2674C68.8452 37.2583 69.7681 36.3215 69.7592 35.171V35.1406C69.7549 34.4902 69.4405 33.8702 68.9159 33.4821L66.2124 31.4811L59.637 26.6161C57.4603 25.0032 56.1596 22.4233 56.1596 19.7155C56.1596 15.592 59.0798 12.1428 62.9605 11.319Z" fill="#33E7D2"/>
<path d="M21.7207 70.544C20.8872 69.0988 19.0355 68.5961 17.5814 69.4349L2.28468 78.265C0.836264 79.1034 0.339366 80.9559 1.17555 82.4062L16.8096 109.485C17.6465 110.933 19.4979 111.43 20.9489 110.594L36.2457 101.761C37.6963 100.925 38.1912 99.0725 37.3548 97.6221L21.7207 70.544Z" fill="#4D89FF"/>
<path d="M109.37 65.1388C107.898 63.0944 105.049 62.6327 103.007 64.1047C96.8107 68.5686 84.9129 77.1407 83.9677 77.8236C83.5319 78.1943 83.0745 78.5304 82.5975 78.8274C80.7266 80.0046 78.5564 80.6333 76.2909 80.6333H60.714C58.919 80.6333 57.4621 79.1786 57.4621 77.3814C57.4621 75.5819 58.9211 74.1294 60.714 74.1294H77.3727C79.8203 74.1294 81.7802 72.0915 81.6783 69.6395C81.5829 67.3133 79.597 65.5096 77.2686 65.5096H64.5882C63.7297 64.6012 62.7888 63.7687 61.7807 63.0251C58.3141 60.469 54.0302 58.958 49.3929 58.958C41.1481 58.958 32.9445 64.1524 29.543 71.0856L42.8456 94.1246H67.799C72.6986 94.1246 77.5245 92.8715 81.7715 90.4282C83.2436 89.5827 84.8197 88.5659 86.528 87.3388C93.6867 82.1964 108.323 71.5127 108.333 71.5062C110.38 70.0363 110.844 67.1832 109.37 65.1388Z" fill="#4D89FF"/>
</svg>
