<svg width="542" height="396" viewBox="0 0 542 396" fill="none" xmlns="http://www.w3.org/2000/svg">
<g filter="url(#filter0_d)">
<path d="M260.801 28.8773L448.072 133.87L444.538 138.918L257.267 31.906L260.801 28.8773Z" fill="#D3D4FF"/>
<g opacity="0.1">
<path d="M441.57 260.069L233.543 141.307L276.123 116.708L504.101 224.225L441.57 260.069Z" fill="#4F53FF"/>
</g>
<g opacity="0.1">
<path d="M494.883 230.322L406.671 179.064L449.288 154.464L537.5 205.722L494.883 230.322Z" fill="#4F53FF"/>
</g>
<path d="M512.277 97.9569C512.203 97.9937 512.13 97.9937 512.056 98.0305C512.019 98.0672 511.946 98.0672 512.019 98.0305C511.909 98.0672 511.799 98.1408 511.652 98.2143L328.945 1.11478L331.004 0.930923L513.503 97.9201H513.527C513.6 97.9569 513.674 97.9937 513.711 98.0305L513.503 97.9201H513.49C513.417 97.9201 513.38 97.8834 513.306 97.8834H513.233C513.159 97.8466 513.086 97.8466 513.012 97.8466H512.975H512.755H512.681C512.644 97.8466 512.571 97.8834 512.534 97.8834C512.497 97.8834 512.46 97.9201 512.424 97.9201C512.387 97.9201 512.313 97.9569 512.277 97.9569Z" fill="#D3D4FF"/>
<path d="M444.264 242.192L443.97 138.573L257.267 31.9059V136.394L445.147 244.141C444.595 243.846 444.264 243.148 444.264 242.192Z" fill="#B9BAFF"/>
<path d="M372.64 106.156L322.383 77.3356L322.383 164.458L373.365 193.938C373.365 193.938 372.662 113.894 372.64 106.156Z" fill="#D3D4FF"/>
<path d="M315.017 72.8405L264.76 44.0204L264.76 131.142L315.742 160.623C315.742 160.623 315.039 80.579 315.017 72.8405Z" fill="#D3D4FF"/>
<path d="M434.222 141.49L383.965 112.67L383.965 199.792L434.947 229.272C434.947 229.272 434.244 149.228 434.222 141.49Z" fill="#D3D4FF"/>
<path d="M448.072 133.87L260.801 28.8773L328.945 1.11475L510.663 97.5264L448.072 133.87Z" fill="#EEEEFF"/>
<path d="M496.028 105.99C512.027 95.7781 513.424 96.5871 513.424 98.5359L513.718 202.155C513.718 204.104 512.357 206.494 510.666 207.45L447.355 244.848C445.664 245.841 444.267 245.032 444.267 243.083L443.973 139.464C443.973 137.515 445.333 135.125 447.025 134.169L496.028 105.99Z" fill="#9FA1FF"/>
<path d="M483.976 242.008C484.013 242.008 484.013 242.008 483.976 242.008C485.263 242.008 486.256 240.979 486.256 239.728L486.219 231.749C486.219 229.469 484.969 227.337 483.02 226.197L476.291 222.262C475.188 221.637 473.791 222.005 473.166 223.071C472.541 224.174 472.908 225.572 473.975 226.197L480.704 230.131C481.292 230.462 481.66 231.087 481.66 231.749L481.697 239.728C481.697 240.979 482.726 242.008 483.976 242.008Z" fill="#304CCF"/>
<path d="M483.976 240.721C484.013 240.721 484.013 240.721 483.976 240.721C484.528 240.721 485.006 240.28 485.006 239.691L484.969 231.712C484.969 229.874 483.976 228.146 482.395 227.226L475.666 223.292C475.188 222.998 474.563 223.181 474.269 223.66C473.975 224.138 474.158 224.763 474.636 225.057L481.365 228.991C482.322 229.543 482.947 230.609 482.947 231.712L482.983 239.691C482.983 240.28 483.425 240.721 483.976 240.721Z" fill="#7AF6E4"/>
<path d="M476.769 245.538C478.056 245.538 479.049 244.509 479.049 243.258L479.012 235.279C479.012 232.999 477.762 230.867 475.813 229.727L469.084 225.792C467.981 225.167 466.584 225.535 465.959 226.601C465.333 227.704 465.701 229.102 466.767 229.727L473.496 233.661C474.085 233.992 474.453 234.617 474.453 235.279L474.489 243.258C474.453 244.509 475.482 245.538 476.769 245.538Z" fill="#304CCF"/>
<path d="M476.769 244.251C477.321 244.251 477.799 243.81 477.799 243.222L477.762 235.242C477.762 233.404 476.769 231.676 475.188 230.756L468.459 226.822C467.981 226.528 467.356 226.712 467.062 227.19C466.768 227.668 466.951 228.293 467.429 228.587L474.158 232.521C475.114 233.073 475.74 234.139 475.74 235.242L475.776 243.222C475.74 243.81 476.181 244.251 476.769 244.251Z" fill="#7AF6E4"/>
<path d="M319.611 86.4214L376.394 117.717" stroke="#B9BAFF" stroke-width="5"/>
<path d="M261.988 53.1064L318.771 84.4024" stroke="#B9BAFF" stroke-width="5"/>
<path d="M379.096 120.746L435.878 152.042" stroke="#B9BAFF" stroke-width="5"/>
<path d="M320.382 98.536L377.403 129.832" stroke="#B9BAFF" stroke-width="5"/>
<path d="M262.759 65.2211L319.78 96.5171" stroke="#B9BAFF" stroke-width="5"/>
<path d="M379.866 132.861L436.888 164.157" stroke="#B9BAFF" stroke-width="5"/>
<path d="M321.152 109.641L374.299 139.487" stroke="#B9BAFF" stroke-width="5"/>
<path d="M263.529 76.326L316.676 106.172" stroke="#B9BAFF" stroke-width="5"/>
<path d="M380.636 143.966L433.784 173.812" stroke="#B9BAFF" stroke-width="5"/>
<path d="M319.859 119.736L375.07 150.592" stroke="#B9BAFF" stroke-width="5"/>
<path d="M262.236 86.4214L317.447 117.277" stroke="#B9BAFF" stroke-width="5"/>
<path d="M379.344 154.061L434.555 184.917" stroke="#B9BAFF" stroke-width="5"/>
<path d="M320.364 131.346L375.84 162.707" stroke="#B9BAFF" stroke-width="5"/>
<path d="M262.741 98.0313L318.217 129.392" stroke="#B9BAFF" stroke-width="5"/>
<path d="M379.848 165.671L435.324 197.031" stroke="#B9BAFF" stroke-width="5"/>
<path d="M320.364 142.956L376.61 174.821" stroke="#B9BAFF" stroke-width="5"/>
<path d="M262.741 109.641L318.987 141.506" stroke="#B9BAFF" stroke-width="5"/>
<path d="M379.848 177.281L436.095 209.146" stroke="#B9BAFF" stroke-width="5"/>
<path d="M320.364 155.071L377.908 188.89" stroke="#B9BAFF" stroke-width="5"/>
<path d="M262.741 121.756L320.285 155.575" stroke="#B9BAFF" stroke-width="5"/>
<path d="M379.848 189.395L437.393 223.215" stroke="#B9BAFF" stroke-width="5"/>
<path fill-rule="evenodd" clip-rule="evenodd" d="M457.709 142.956L506.168 114.689L506.168 120.241L457.709 150.023L457.709 142.956Z" fill="#5363FC"/>
<path fill-rule="evenodd" clip-rule="evenodd" d="M457.709 167.185L506.168 138.918L506.168 144.47L457.709 174.252L457.709 167.185Z" fill="#5363FC"/>
<path fill-rule="evenodd" clip-rule="evenodd" d="M457.709 191.414L506.168 163.147L506.168 168.7L457.709 198.481L457.709 191.414Z" fill="#5363FC"/>
<path fill-rule="evenodd" clip-rule="evenodd" d="M457.709 215.643L506.168 187.376L506.168 192.929L457.709 222.71L457.709 215.643Z" fill="#5363FC"/>
<rect x="479.872" y="122.765" width="2.01909" height="94.8974" rx="1.00955" fill="#8487F5"/>
<rect x="490.977" y="117.717" width="2.01909" height="94.8974" rx="1.00955" fill="#8487F5"/>
<path d="M277.543 153.819C276.659 153.819 275.944 153.105 275.944 152.22V146.708C275.944 145.142 276.795 143.645 278.156 142.863L282.818 140.14C283.566 139.698 284.553 139.97 284.995 140.719C285.438 141.467 285.165 142.454 284.417 142.897L279.755 145.619C279.347 145.857 279.109 146.265 279.109 146.742V152.254C279.143 153.105 278.428 153.819 277.543 153.819Z" fill="#304CCF"/>
<path d="M277.543 152.935C277.169 152.935 276.829 152.629 276.829 152.22V146.708C276.829 145.449 277.509 144.258 278.598 143.611L283.26 140.889C283.6 140.685 284.042 140.821 284.213 141.127C284.417 141.468 284.281 141.91 283.974 142.08L279.313 144.802C278.632 145.177 278.224 145.925 278.224 146.674V152.186C278.258 152.629 277.951 152.935 277.543 152.935Z" fill="#7AF6E4"/>
<path d="M285.166 157.733C284.281 157.733 283.566 157.018 283.566 156.134V150.621C283.566 149.056 284.417 147.559 285.778 146.776L290.44 144.054C291.188 143.612 292.175 143.884 292.618 144.632C293.06 145.381 292.788 146.368 292.039 146.81L287.377 149.532C286.969 149.77 286.731 150.179 286.731 150.655V156.168C286.731 157.018 286.016 157.733 285.166 157.733Z" fill="#304CCF"/>
<path d="M285.165 156.848C284.791 156.848 284.451 156.542 284.451 156.134V150.621C284.451 149.362 285.131 148.171 286.22 147.525L290.882 144.803C291.222 144.598 291.665 144.734 291.835 145.041C292.039 145.381 291.903 145.823 291.597 145.993L286.935 148.716C286.254 149.09 285.846 149.839 285.846 150.587V156.1C285.846 156.542 285.54 156.848 285.165 156.848Z" fill="#7AF6E4"/>
<path d="M336.097 186.125C335.212 186.125 334.498 185.41 334.498 184.526V179.013C334.498 177.448 335.348 175.951 336.709 175.168L341.371 172.446C342.12 172.004 343.107 172.276 343.549 173.024C343.991 173.773 343.719 174.76 342.971 175.202L338.309 177.924C337.9 178.163 337.662 178.571 337.662 179.047V184.56C337.696 185.41 336.982 186.125 336.097 186.125Z" fill="#304CCF"/>
<path d="M336.097 185.24C335.722 185.24 335.382 184.934 335.382 184.526V179.013C335.382 177.754 336.063 176.563 337.152 175.917L341.813 173.194C342.154 172.99 342.596 173.126 342.766 173.433C342.97 173.773 342.834 174.215 342.528 174.385L337.866 177.108C337.186 177.482 336.777 178.231 336.777 178.979V184.492C336.811 184.934 336.505 185.24 336.097 185.24Z" fill="#7AF6E4"/>
<path d="M343.719 190.038C342.835 190.038 342.12 189.324 342.12 188.439V182.927C342.12 181.361 342.971 179.864 344.332 179.081L348.994 176.359C349.742 175.917 350.729 176.189 351.171 176.938C351.614 177.686 351.341 178.673 350.593 179.116L345.931 181.838C345.523 182.076 345.285 182.484 345.285 182.961V188.473C345.285 189.324 344.57 190.038 343.719 190.038Z" fill="#304CCF"/>
<path d="M343.719 189.154C343.345 189.154 343.005 188.847 343.005 188.439V182.927C343.005 181.668 343.685 180.477 344.774 179.83L349.436 177.108C349.776 176.904 350.218 177.04 350.389 177.346C350.593 177.686 350.457 178.129 350.15 178.299L345.489 181.021C344.808 181.395 344.4 182.144 344.4 182.893V188.405C344.4 188.847 344.093 189.154 343.719 189.154Z" fill="#7AF6E4"/>
<path d="M145.712 86.4215L332.983 191.414L329.45 196.462L142.179 89.4501L145.712 86.4215Z" fill="#D3D4FF"/>
<g opacity="0.1">
<path d="M326.481 317.613L118.454 198.852L161.034 174.252L389.013 281.769L326.481 317.613Z" fill="#4F53FF"/>
</g>
<g opacity="0.1">
<path d="M379.794 287.866L291.582 236.608L334.199 212.008L422.411 263.266L379.794 287.866Z" fill="#4F53FF"/>
</g>
<path d="M397.188 155.501C397.115 155.538 397.041 155.538 396.968 155.575C396.931 155.611 396.857 155.611 396.931 155.575C396.82 155.611 396.71 155.685 396.563 155.758L213.857 58.659L215.916 58.4751L398.415 155.464H398.438C398.512 155.501 398.585 155.538 398.622 155.575L398.415 155.464H398.402C398.328 155.464 398.291 155.428 398.218 155.428H398.144C398.071 155.391 397.997 155.391 397.924 155.391H397.887H397.666H397.593C397.556 155.391 397.482 155.428 397.446 155.428C397.409 155.428 397.372 155.464 397.335 155.464C397.298 155.464 397.225 155.501 397.188 155.501Z" fill="#D3D4FF"/>
<path d="M329.176 299.736L328.881 196.117L142.179 89.4501V193.938L330.058 301.685C329.507 301.391 329.176 300.692 329.176 299.736Z" fill="#B9BAFF"/>
<path d="M257.551 163.7L207.295 134.88L207.294 222.002L258.277 251.482C258.277 251.482 257.573 171.438 257.551 163.7Z" fill="#D3D4FF"/>
<path d="M199.928 130.385L149.671 101.565L149.671 188.687L200.653 218.167C200.653 218.167 199.95 138.123 199.928 130.385Z" fill="#D3D4FF"/>
<path d="M319.133 199.034L268.877 170.214L268.877 257.336L319.859 286.816C319.859 286.816 319.155 206.772 319.133 199.034Z" fill="#D3D4FF"/>
<path d="M332.983 191.414L145.712 86.4215L213.857 58.6589L395.575 155.071L332.983 191.414Z" fill="#EEEEFF"/>
<path d="M380.939 163.535C396.938 153.322 398.335 154.131 398.335 156.08L398.629 259.699C398.629 261.648 397.269 264.038 395.577 264.994L332.267 302.392C330.575 303.385 329.178 302.576 329.178 300.627L328.884 197.008C328.884 195.059 330.244 192.669 331.936 191.713L380.939 163.535Z" fill="#9FA1FF"/>
<path d="M368.888 299.552C368.924 299.552 368.924 299.552 368.888 299.552C370.175 299.552 371.167 298.523 371.167 297.272L371.131 289.293C371.131 287.013 369.88 284.881 367.932 283.741L361.203 279.806C360.1 279.181 358.702 279.549 358.077 280.615C357.452 281.718 357.82 283.116 358.886 283.741L365.615 287.675C366.203 288.006 366.571 288.631 366.571 289.293L366.608 297.272C366.608 298.523 367.637 299.552 368.888 299.552Z" fill="#304CCF"/>
<path d="M368.888 298.265C368.924 298.265 368.924 298.265 368.888 298.265C369.439 298.265 369.917 297.824 369.917 297.236L369.881 289.256C369.881 287.418 368.888 285.69 367.307 284.77L360.578 280.836C360.1 280.542 359.474 280.726 359.18 281.204C358.886 281.682 359.07 282.307 359.548 282.601L366.277 286.535C367.233 287.087 367.858 288.153 367.858 289.256L367.895 297.236C367.895 297.824 368.336 298.265 368.888 298.265Z" fill="#7AF6E4"/>
<path d="M361.681 303.082C362.967 303.082 363.96 302.053 363.96 300.802L363.924 292.823C363.924 290.543 362.673 288.411 360.724 287.271L353.996 283.336C352.892 282.711 351.495 283.079 350.87 284.145C350.245 285.249 350.613 286.646 351.679 287.271L358.408 291.205C358.996 291.536 359.364 292.161 359.364 292.823L359.401 300.802C359.364 302.053 360.394 303.082 361.681 303.082Z" fill="#304CCF"/>
<path d="M361.681 301.795C362.232 301.795 362.71 301.354 362.71 300.766L362.673 292.786C362.673 290.948 361.681 289.22 360.099 288.3L353.37 284.366C352.892 284.072 352.267 284.256 351.973 284.734C351.679 285.212 351.863 285.837 352.341 286.131L359.07 290.065C360.026 290.617 360.651 291.683 360.651 292.786L360.688 300.766C360.651 301.354 361.092 301.795 361.681 301.795Z" fill="#7AF6E4"/>
<path d="M204.523 143.966L261.305 175.262" stroke="#B9BAFF" stroke-width="5"/>
<path d="M146.899 110.651L203.682 141.946" stroke="#B9BAFF" stroke-width="5"/>
<path d="M264.007 178.29L320.79 209.586" stroke="#B9BAFF" stroke-width="5"/>
<path d="M205.293 156.08L262.315 187.376" stroke="#B9BAFF" stroke-width="5"/>
<path d="M147.67 122.765L204.692 154.061" stroke="#B9BAFF" stroke-width="5"/>
<path d="M264.778 190.405L321.799 221.701" stroke="#B9BAFF" stroke-width="5"/>
<path d="M206.063 167.185L259.211 197.031" stroke="#B9BAFF" stroke-width="5"/>
<path d="M148.44 133.87L201.587 163.716" stroke="#B9BAFF" stroke-width="5"/>
<path d="M265.548 201.51L318.695 231.356" stroke="#B9BAFF" stroke-width="5"/>
<path d="M204.771 177.281L259.981 208.136" stroke="#B9BAFF" stroke-width="5"/>
<path d="M147.148 143.966L202.359 174.821" stroke="#B9BAFF" stroke-width="5"/>
<path d="M264.255 211.605L319.466 242.461" stroke="#B9BAFF" stroke-width="5"/>
<path d="M205.275 188.891L260.751 220.251" stroke="#B9BAFF" stroke-width="5"/>
<path d="M147.652 155.575L203.128 186.936" stroke="#B9BAFF" stroke-width="5"/>
<path d="M264.76 223.215L320.236 254.575" stroke="#B9BAFF" stroke-width="5"/>
<path d="M205.275 200.5L261.522 232.365" stroke="#B9BAFF" stroke-width="5"/>
<path d="M147.652 167.185L203.898 199.05" stroke="#B9BAFF" stroke-width="5"/>
<path d="M264.76 234.825L321.006 266.69" stroke="#B9BAFF" stroke-width="5"/>
<path d="M205.275 212.615L262.82 246.435" stroke="#B9BAFF" stroke-width="5"/>
<path d="M147.652 179.3L205.196 213.12" stroke="#B9BAFF" stroke-width="5"/>
<path d="M264.76 246.939L322.304 280.759" stroke="#B9BAFF" stroke-width="5"/>
<path fill-rule="evenodd" clip-rule="evenodd" d="M342.621 200.5L391.079 172.233L391.079 177.785L342.621 207.567L342.621 200.5Z" fill="#5363FC"/>
<path fill-rule="evenodd" clip-rule="evenodd" d="M342.621 224.729L391.079 196.462L391.079 202.014L342.621 231.796L342.621 224.729Z" fill="#5363FC"/>
<path fill-rule="evenodd" clip-rule="evenodd" d="M342.621 248.958L391.079 220.691L391.079 226.244L342.621 256.025L342.621 248.958Z" fill="#5363FC"/>
<path fill-rule="evenodd" clip-rule="evenodd" d="M342.621 273.188L391.079 244.92L391.079 250.473L342.621 280.254L342.621 273.188Z" fill="#5363FC"/>
<rect x="364.784" y="180.309" width="2.01909" height="94.8974" rx="1.00955" fill="#8487F5"/>
<rect x="375.889" y="175.261" width="2.01909" height="94.8974" rx="1.00955" fill="#8487F5"/>
<path d="M162.454 211.364C161.57 211.364 160.855 210.649 160.855 209.764V204.252C160.855 202.687 161.706 201.189 163.067 200.407L167.729 197.685C168.477 197.242 169.464 197.514 169.906 198.263C170.349 199.012 170.077 199.998 169.328 200.441L164.666 203.163C164.258 203.401 164.02 203.81 164.02 204.286V209.798C164.054 210.649 163.339 211.364 162.454 211.364Z" fill="#304CCF"/>
<path d="M162.455 210.479C162.08 210.479 161.74 210.173 161.74 209.765V204.252C161.74 202.993 162.42 201.802 163.509 201.156L168.171 198.433C168.511 198.229 168.954 198.365 169.124 198.672C169.328 199.012 169.192 199.454 168.886 199.624L164.224 202.347C163.543 202.721 163.135 203.469 163.135 204.218V209.731C163.169 210.173 162.863 210.479 162.455 210.479Z" fill="#7AF6E4"/>
<path d="M170.077 215.277C169.192 215.277 168.478 214.563 168.478 213.678V208.165C168.478 206.6 169.328 205.103 170.689 204.32L175.351 201.598C176.1 201.156 177.087 201.428 177.529 202.177C177.971 202.925 177.699 203.912 176.951 204.354L172.289 207.077C171.88 207.315 171.642 207.723 171.642 208.2V213.712C171.642 214.563 170.928 215.277 170.077 215.277Z" fill="#304CCF"/>
<path d="M170.077 214.392C169.702 214.392 169.362 214.086 169.362 213.678V208.165C169.362 206.906 170.043 205.715 171.131 205.069L175.793 202.347C176.133 202.143 176.576 202.279 176.746 202.585C176.95 202.925 176.814 203.368 176.508 203.538L171.846 206.26C171.165 206.634 170.757 207.383 170.757 208.131V213.644C170.757 214.086 170.451 214.392 170.077 214.392Z" fill="#7AF6E4"/>
<path d="M221.008 243.669C220.124 243.669 219.409 242.955 219.409 242.07V236.557C219.409 234.992 220.26 233.495 221.621 232.712L226.283 229.99C227.031 229.548 228.018 229.82 228.46 230.569C228.903 231.317 228.631 232.304 227.882 232.746L223.22 235.469C222.812 235.707 222.574 236.115 222.574 236.591V242.104C222.608 242.955 221.893 243.669 221.008 243.669Z" fill="#304CCF"/>
<path d="M221.008 242.785C220.634 242.785 220.294 242.478 220.294 242.07V236.557C220.294 235.298 220.974 234.108 222.063 233.461L226.725 230.739C227.065 230.535 227.508 230.671 227.678 230.977C227.882 231.317 227.746 231.76 227.44 231.93L222.778 234.652C222.097 235.026 221.689 235.775 221.689 236.523V242.036C221.723 242.478 221.417 242.785 221.008 242.785Z" fill="#7AF6E4"/>
<path d="M228.631 247.582C227.746 247.582 227.032 246.868 227.032 245.983V240.471C227.032 238.905 227.882 237.408 229.243 236.626L233.905 233.903C234.654 233.461 235.641 233.733 236.083 234.482C236.525 235.23 236.253 236.217 235.504 236.66L230.843 239.382C230.434 239.62 230.196 240.028 230.196 240.505V246.017C230.196 246.868 229.482 247.582 228.631 247.582Z" fill="#304CCF"/>
<path d="M228.63 246.698C228.256 246.698 227.916 246.391 227.916 245.983V240.471C227.916 239.212 228.596 238.021 229.685 237.374L234.347 234.652C234.687 234.448 235.13 234.584 235.3 234.89C235.504 235.23 235.368 235.673 235.062 235.843L230.4 238.565C229.719 238.939 229.311 239.688 229.311 240.437V245.949C229.311 246.391 229.005 246.698 228.63 246.698Z" fill="#7AF6E4"/>
<path d="M281.581 279.003C280.696 279.003 279.982 278.289 279.982 277.404V271.892C279.982 270.326 280.832 268.829 282.194 268.046L286.855 265.324C287.604 264.882 288.591 265.154 289.033 265.903C289.475 266.651 289.203 267.638 288.455 268.08L283.793 270.803C283.384 271.041 283.146 271.449 283.146 271.926V277.438C283.18 278.289 282.466 279.003 281.581 279.003Z" fill="#304CCF"/>
<path d="M281.581 278.119C281.207 278.119 280.866 277.812 280.866 277.404V271.891C280.866 270.632 281.547 269.442 282.636 268.795L287.297 266.073C287.638 265.869 288.08 266.005 288.25 266.311C288.454 266.651 288.318 267.094 288.012 267.264L283.35 269.986C282.67 270.36 282.261 271.109 282.261 271.857V277.37C282.295 277.812 281.989 278.119 281.581 278.119Z" fill="#7AF6E4"/>
<path d="M289.203 282.917C288.319 282.917 287.604 282.202 287.604 281.317V275.805C287.604 274.24 288.455 272.742 289.816 271.96L294.478 269.238C295.226 268.795 296.213 269.067 296.655 269.816C297.098 270.565 296.826 271.551 296.077 271.994L291.415 274.716C291.007 274.954 290.769 275.363 290.769 275.839V281.351C290.769 282.202 290.054 282.917 289.203 282.917Z" fill="#304CCF"/>
<path d="M289.203 282.032C288.829 282.032 288.489 281.726 288.489 281.317V275.805C288.489 274.546 289.169 273.355 290.258 272.708L294.92 269.986C295.26 269.782 295.702 269.918 295.873 270.224C296.077 270.565 295.941 271.007 295.634 271.177L290.973 273.899C290.292 274.274 289.884 275.022 289.884 275.771V281.283C289.884 281.726 289.577 282.032 289.203 282.032Z" fill="#7AF6E4"/>
<path d="M31.7579 155.877L219.029 260.87L215.495 265.918L28.2245 158.906L31.7579 155.877Z" fill="#D3D4FF"/>
<g opacity="0.1">
<path d="M212.527 387.069L4.50006 268.307L47.0803 243.708L275.058 351.225L212.527 387.069Z" fill="#4F53FF"/>
</g>
<g opacity="0.1">
<path d="M265.84 357.322L177.628 306.064L220.245 281.464L308.457 332.722L265.84 357.322Z" fill="#4F53FF"/>
</g>
<path d="M283.234 224.957C283.16 224.994 283.087 224.994 283.013 225.03C282.977 225.067 282.903 225.067 282.977 225.03C282.866 225.067 282.756 225.141 282.609 225.214L99.9023 128.115L101.961 127.931L284.46 224.92H284.484C284.558 224.957 284.631 224.994 284.668 225.03L284.46 224.92H284.447C284.374 224.92 284.337 224.883 284.263 224.883H284.19C284.116 224.847 284.043 224.847 283.969 224.847H283.933H283.712H283.638C283.602 224.847 283.528 224.883 283.491 224.883C283.455 224.883 283.418 224.92 283.381 224.92C283.344 224.92 283.271 224.957 283.234 224.957Z" fill="#D3D4FF"/>
<path d="M215.221 369.192L214.927 265.573L28.2245 158.906V263.394L216.104 371.141C215.552 370.847 215.221 370.148 215.221 369.192Z" fill="#B9BAFF"/>
<path d="M143.597 233.156L93.3403 204.335L93.3403 291.457L144.322 320.938C144.322 320.938 143.619 240.894 143.597 233.156Z" fill="#D3D4FF"/>
<path d="M85.9736 199.84L35.7171 171.02L35.7171 258.142L86.6992 287.623C86.6992 287.623 85.9957 207.579 85.9736 199.84Z" fill="#D3D4FF"/>
<path d="M205.179 268.49L154.923 239.67L154.923 326.792L205.905 356.272C205.905 356.272 205.201 276.228 205.179 268.49Z" fill="#D3D4FF"/>
<path d="M219.029 260.87L31.758 155.877L99.9024 128.115L281.621 224.526L219.029 260.87Z" fill="#EEEEFF"/>
<path d="M266.985 232.99C282.984 222.778 284.381 223.587 284.381 225.536L284.675 329.155C284.675 331.104 283.315 333.494 281.623 334.45L218.313 371.848C216.621 372.841 215.224 372.032 215.224 370.083L214.93 266.464C214.93 264.515 216.29 262.125 217.982 261.169L266.985 232.99Z" fill="#9FA1FF"/>
<path d="M254.933 369.008C254.97 369.008 254.97 369.008 254.933 369.008C256.22 369.008 257.213 367.978 257.213 366.728L257.176 358.749C257.176 356.469 255.926 354.337 253.977 353.197L247.248 349.262C246.145 348.637 244.748 349.005 244.123 350.071C243.498 351.174 243.866 352.572 244.932 353.197L251.661 357.131C252.249 357.462 252.617 358.087 252.617 358.749L252.654 366.728C252.654 367.978 253.683 369.008 254.933 369.008Z" fill="#304CCF"/>
<path d="M254.933 367.721C254.97 367.721 254.97 367.721 254.933 367.721C255.485 367.721 255.963 367.28 255.963 366.691L255.926 358.712C255.926 356.874 254.933 355.146 253.352 354.226L246.623 350.292C246.145 349.998 245.52 350.181 245.226 350.66C244.932 351.138 245.116 351.763 245.594 352.057L252.323 355.991C253.279 356.543 253.904 357.609 253.904 358.712L253.941 366.691C253.941 367.28 254.382 367.721 254.933 367.721Z" fill="#7AF6E4"/>
<path d="M247.726 372.538V372.538C249.013 372.538 250.006 371.508 250.006 370.258L249.969 362.279C249.969 359.999 248.719 357.867 246.77 356.727L240.041 352.792C238.938 352.167 237.541 352.535 236.916 353.601C236.291 354.704 236.658 356.102 237.725 356.727L244.454 360.661C245.042 360.992 245.41 361.617 245.41 362.279L245.447 370.258C245.41 371.508 246.439 372.538 247.726 372.538Z" fill="#304CCF"/>
<path d="M247.726 371.251V371.251C248.278 371.251 248.756 370.81 248.756 370.221L248.719 362.242C248.719 360.404 247.726 358.675 246.145 357.756L239.416 353.822C238.938 353.528 238.313 353.711 238.019 354.189C237.725 354.667 237.909 355.293 238.387 355.587L245.116 359.521C246.072 360.073 246.697 361.139 246.697 362.242L246.734 370.221C246.697 370.81 247.138 371.251 247.726 371.251Z" fill="#7AF6E4"/>
<path d="M90.5684 213.421L147.351 244.717" stroke="#B9BAFF" stroke-width="5"/>
<path d="M32.9453 180.106L89.7278 211.402" stroke="#B9BAFF" stroke-width="5"/>
<path d="M150.053 247.746L206.835 279.042" stroke="#B9BAFF" stroke-width="5"/>
<path d="M91.339 225.536L148.361 256.832" stroke="#B9BAFF" stroke-width="5"/>
<path d="M33.7158 192.221L90.7374 223.517" stroke="#B9BAFF" stroke-width="5"/>
<path d="M150.823 259.861L207.845 291.157" stroke="#B9BAFF" stroke-width="5"/>
<path d="M92.1091 236.641L145.256 266.487" stroke="#B9BAFF" stroke-width="5"/>
<path d="M34.486 203.326L87.6333 233.172" stroke="#B9BAFF" stroke-width="5"/>
<path d="M151.594 270.966L204.741 300.812" stroke="#B9BAFF" stroke-width="5"/>
<path d="M90.8163 246.736L146.027 277.592" stroke="#B9BAFF" stroke-width="5"/>
<path d="M33.1934 213.421L88.4044 244.277" stroke="#B9BAFF" stroke-width="5"/>
<path d="M150.301 281.061L205.512 311.917" stroke="#B9BAFF" stroke-width="5"/>
<path d="M91.3212 258.346L146.797 289.707" stroke="#B9BAFF" stroke-width="5"/>
<path d="M33.698 225.031L89.174 256.391" stroke="#B9BAFF" stroke-width="5"/>
<path d="M150.806 292.671L206.281 324.031" stroke="#B9BAFF" stroke-width="5"/>
<path d="M91.3212 269.956L147.567 301.821" stroke="#B9BAFF" stroke-width="5"/>
<path d="M33.698 236.641L89.9442 268.506" stroke="#B9BAFF" stroke-width="5"/>
<path d="M150.806 304.281L207.052 336.146" stroke="#B9BAFF" stroke-width="5"/>
<path d="M91.3212 282.071L148.865 315.89" stroke="#B9BAFF" stroke-width="5"/>
<path d="M33.698 248.756L91.2422 282.575" stroke="#B9BAFF" stroke-width="5"/>
<path d="M150.806 316.395L208.35 350.215" stroke="#B9BAFF" stroke-width="5"/>
<path fill-rule="evenodd" clip-rule="evenodd" d="M228.667 269.956L277.125 241.689L277.125 247.241L228.667 277.023L228.667 269.956Z" fill="#5363FC"/>
<path fill-rule="evenodd" clip-rule="evenodd" d="M228.667 294.185L277.125 265.918L277.125 271.47L228.667 301.252L228.667 294.185Z" fill="#5363FC"/>
<path fill-rule="evenodd" clip-rule="evenodd" d="M228.667 318.414L277.125 290.147L277.125 295.699L228.667 325.481L228.667 318.414Z" fill="#5363FC"/>
<path fill-rule="evenodd" clip-rule="evenodd" d="M228.667 342.643L277.125 314.376L277.125 319.929L228.667 349.71L228.667 342.643Z" fill="#5363FC"/>
<rect x="250.829" y="249.765" width="2.01909" height="94.8974" rx="1.00955" fill="#8487F5"/>
<rect x="261.934" y="244.717" width="2.01909" height="94.8974" rx="1.00955" fill="#8487F5"/>
<path d="M48.5002 280.819V280.819C47.6155 280.819 46.9009 280.105 46.9009 279.22V273.708C46.9009 272.142 47.7516 270.645 49.1127 269.863L53.7745 267.14C54.5231 266.698 55.5099 266.97 55.9522 267.719C56.3946 268.467 56.1224 269.454 55.3738 269.897L50.712 272.619C50.3037 272.857 50.0655 273.265 50.0655 273.742V279.254C50.0995 280.105 49.3849 280.819 48.5002 280.819Z" fill="#304CCF"/>
<path d="M48.5003 279.935V279.935C48.126 279.935 47.7857 279.629 47.7857 279.22V273.708C47.7857 272.449 48.4663 271.258 49.5551 270.611L54.2169 267.889C54.5572 267.685 54.9995 267.821 55.1697 268.127C55.3738 268.468 55.2377 268.91 54.9315 269.08L50.2697 271.802C49.5892 272.177 49.1808 272.925 49.1808 273.674V279.186C49.2149 279.629 48.9086 279.935 48.5003 279.935Z" fill="#7AF6E4"/>
<path d="M56.1227 284.733V284.733C55.238 284.733 54.5234 284.018 54.5234 283.134V277.621C54.5234 276.056 55.3741 274.559 56.7352 273.776L61.397 271.054C62.1456 270.612 63.1324 270.884 63.5747 271.632C64.0171 272.381 63.7449 273.368 62.9963 273.81L58.3345 276.532C57.9262 276.771 57.688 277.179 57.688 277.655V283.168C57.688 284.018 56.9734 284.733 56.1227 284.733Z" fill="#304CCF"/>
<path d="M56.1224 283.848V283.848C55.7481 283.848 55.4078 283.542 55.4078 283.134V277.621C55.4078 276.362 56.0883 275.171 57.1772 274.525L61.839 271.803C62.1792 271.598 62.6216 271.734 62.7917 272.041C62.9959 272.381 62.8598 272.823 62.5535 272.993L57.8918 275.716C57.2112 276.09 56.8029 276.839 56.8029 277.587V283.1C56.8029 283.542 56.4967 283.848 56.1224 283.848Z" fill="#7AF6E4"/>
<path d="M107.054 313.125V313.125C106.17 313.125 105.455 312.41 105.455 311.526V306.013C105.455 304.448 106.306 302.951 107.667 302.168L112.329 299.446C113.077 299.004 114.064 299.276 114.506 300.024C114.949 300.773 114.676 301.76 113.928 302.202L109.266 304.924C108.858 305.163 108.62 305.571 108.62 306.047V311.56C108.654 312.41 107.939 313.125 107.054 313.125Z" fill="#304CCF"/>
<path d="M107.054 312.24V312.24C106.68 312.24 106.34 311.934 106.34 311.526V306.013C106.34 304.754 107.02 303.563 108.109 302.917L112.771 300.195C113.111 299.99 113.553 300.127 113.724 300.433C113.928 300.773 113.792 301.215 113.485 301.386L108.824 304.108C108.143 304.482 107.735 305.231 107.735 305.979V311.492C107.769 311.934 107.463 312.24 107.054 312.24Z" fill="#7AF6E4"/>
<path d="M114.677 317.038V317.038C113.792 317.038 113.077 316.324 113.077 315.439V309.926C113.077 308.361 113.928 306.864 115.289 306.081L119.951 303.359C120.699 302.917 121.686 303.189 122.129 303.938C122.571 304.686 122.299 305.673 121.55 306.115L116.888 308.838C116.48 309.076 116.242 309.484 116.242 309.961V315.473C116.242 316.324 115.527 317.038 114.677 317.038Z" fill="#304CCF"/>
<path d="M114.676 316.154V316.154C114.302 316.154 113.962 315.847 113.962 315.439V309.927C113.962 308.668 114.642 307.477 115.731 306.83L120.393 304.108C120.733 303.904 121.175 304.04 121.346 304.346C121.55 304.686 121.414 305.129 121.107 305.299L116.446 308.021C115.765 308.395 115.357 309.144 115.357 309.892V315.405C115.357 315.847 115.05 316.154 114.676 316.154Z" fill="#7AF6E4"/>
<path d="M167.627 348.459V348.459C166.742 348.459 166.028 347.745 166.028 346.86V341.347C166.028 339.782 166.878 338.285 168.239 337.502L172.901 334.78C173.65 334.338 174.636 334.61 175.079 335.359C175.521 336.107 175.249 337.094 174.5 337.536L169.839 340.258C169.43 340.497 169.192 340.905 169.192 341.381V346.894C169.226 347.745 168.512 348.459 167.627 348.459Z" fill="#304CCF"/>
<path d="M167.627 347.574V347.574C167.252 347.574 166.912 347.268 166.912 346.86V341.347C166.912 340.088 167.593 338.897 168.681 338.251L173.343 335.529C173.684 335.324 174.126 335.461 174.296 335.767C174.5 336.107 174.364 336.549 174.058 336.72L169.396 339.442C168.716 339.816 168.307 340.565 168.307 341.313V346.826C168.341 347.268 168.035 347.574 167.627 347.574Z" fill="#7AF6E4"/>
<path d="M175.249 352.372V352.372C174.365 352.372 173.65 351.658 173.65 350.773V345.261C173.65 343.695 174.501 342.198 175.862 341.416L180.524 338.693C181.272 338.251 182.259 338.523 182.701 339.272C183.144 340.02 182.871 341.007 182.123 341.45L177.461 344.172C177.053 344.41 176.815 344.818 176.815 345.295V350.807C176.815 351.658 176.1 352.372 175.249 352.372Z" fill="#304CCF"/>
<path d="M175.249 351.488V351.488C174.875 351.488 174.534 351.182 174.534 350.773V345.261C174.534 344.002 175.215 342.811 176.304 342.164L180.966 339.442C181.306 339.238 181.748 339.374 181.918 339.68C182.122 340.021 181.986 340.463 181.68 340.633L177.018 343.355C176.338 343.73 175.929 344.478 175.929 345.227V350.739C175.929 351.182 175.623 351.488 175.249 351.488Z" fill="#7AF6E4"/>
<path fill-rule="evenodd" clip-rule="evenodd" d="M358.96 260.01L359.033 259.976H358.96V260.01ZM358.96 260.01L356.055 261.337C356.018 261.226 355.908 261.116 355.798 261.043C355.614 260.932 355.356 260.932 355.099 261.079C354.658 261.337 354.29 261.925 354.29 262.44C354.29 262.734 354.4 262.955 354.584 263.065C354.658 263.102 354.768 263.138 354.878 263.138C355.026 263.138 355.136 263.102 355.283 263.028C355.724 262.771 356.055 262.219 356.055 261.741L358.96 260.381V260.01ZM354.842 262.734C354.915 262.771 355.025 262.771 355.136 262.697C355.467 262.514 355.761 262.036 355.724 261.668C355.724 261.521 355.687 261.41 355.614 261.374C355.54 261.337 355.43 261.337 355.32 261.41C354.989 261.594 354.731 262.072 354.731 262.44C354.731 262.587 354.768 262.697 354.842 262.734Z" fill="#7AF6E4"/>
<path fill-rule="evenodd" clip-rule="evenodd" d="M358.997 246.445V246.886L352.047 250.967V264.425C352.194 264.425 352.341 264.425 352.452 264.499C352.635 264.609 352.746 264.83 352.746 265.124C352.746 265.639 352.378 266.227 351.937 266.485C351.79 266.558 351.679 266.595 351.532 266.595C351.422 266.595 351.312 266.558 351.238 266.521C351.054 266.411 350.944 266.19 350.944 265.896C350.944 265.418 351.238 264.867 351.643 264.573V250.71L358.997 246.445ZM352.341 265.051C352.341 264.904 352.304 264.793 352.231 264.756C352.2 264.725 352.115 264.747 352 264.777C351.98 264.782 351.959 264.788 351.937 264.793C351.606 264.977 351.348 265.455 351.348 265.823C351.348 265.97 351.385 266.08 351.459 266.117C351.532 266.154 351.643 266.154 351.753 266.08C352.084 265.896 352.341 265.418 352.341 265.051Z" fill="#7AF6E4"/>
<path d="M391.573 294.831C391.573 294.831 391.352 295.493 391.573 296.964C391.793 298.434 392.382 300.494 391.205 301.155C390.028 301.817 387.197 300.089 385.726 300.273C384.256 300.457 381.755 299.574 381.608 298.839C381.424 298.14 381.534 296.008 382.895 295.934C384.256 295.861 387.455 296.375 387.749 295.713C388.08 295.052 388.153 294.831 388.153 294.831H391.573Z" fill="#4D89FF"/>
<path d="M391.573 296.964C391.683 297.589 391.83 298.324 391.904 299.023C391.83 299.538 391.646 299.942 391.205 300.2C390.028 300.861 387.197 299.133 385.726 299.317C384.255 299.501 381.755 298.618 381.608 297.883C381.608 297.846 381.571 297.773 381.571 297.699C381.682 296.89 382.012 296.008 382.858 295.971C384.182 295.897 387.418 296.412 387.712 295.75C388.043 295.088 388.116 294.868 388.116 294.868H391.426C391.426 295.015 391.426 295.162 391.462 295.309C391.462 295.64 391.426 296.155 391.573 296.964Z" fill="#304CCF"/>
<path d="M398.78 288.985C398.78 288.985 397.419 288.838 397.015 289.426C396.61 290.014 396.243 291.044 396.28 291.559C396.353 292.073 399.184 296.265 400.729 296.302C402.31 296.339 402.604 294.978 402.641 294.096L398.78 288.985Z" fill="#4D89FF"/>
<path d="M401.795 289.757C401.795 289.757 401.537 291.08 401.795 291.522C402.052 291.963 403.082 293.728 402.53 294.757C401.942 295.787 400.14 295.456 399.552 294.757C398.964 294.059 397.088 292.294 397.015 291.595C396.978 290.933 397.309 289.793 398.118 289.499C398.927 289.242 401.795 289.757 401.795 289.757Z" fill="#304CCF"/>
<path d="M385.028 256.479L387.638 293.691C387.675 294.463 388.3 295.125 389.109 295.199C390.359 295.309 392.014 295.419 392.014 295.052C392.014 294.463 390.948 275.894 390.948 275.894L391.61 263.87L392.639 264.459L394.147 273.725L398.339 289.389C398.596 290.345 399.552 290.933 400.545 290.713C401.574 290.492 402.199 289.463 401.942 288.47L398.559 274.24L398.339 260.745C398.339 260.745 399.184 258.612 398.89 257.362C398.522 256.112 385.028 256.479 385.028 256.479Z" fill="#FF397A"/>
<path d="M396.904 224.82C396.169 224.967 395.287 224.415 394.073 223.937C394.735 223.607 395.654 223.018 395.139 222.54C394.367 221.842 392.161 222.356 392.161 222.356C392.161 222.356 394.11 221.437 392.786 221.033C391.462 220.628 388.962 221.474 387.822 222.798C386.682 224.121 386.976 227.247 386.976 227.247C386.976 227.247 387.05 230.078 387.234 230.409C387.418 230.74 387.675 231.218 387.969 231.622C388.263 232.027 389.477 233.167 389.477 233.167C389.477 233.167 389.587 234.969 393.705 234.086C397.824 233.167 396.39 226.254 396.39 226.254C396.757 225.997 396.904 224.82 396.904 224.82Z" fill="#383D4D"/>
<path d="M386.976 227.21C386.976 227.21 386.131 232.763 386.976 233.903C387.822 235.042 389.514 234.491 389.514 234.491C389.514 234.491 390.396 235.52 390.58 236.624C390.58 236.624 392.823 237.138 393.963 236.624C395.066 236.109 394.919 235.557 394.919 235.557C394.919 235.557 393.816 234.601 393.705 234.05C393.632 233.535 390.874 234.123 390.433 233.425C389.992 232.726 390.911 231.292 390.175 230.777C389.44 230.262 389.146 231.071 389.146 231.071C389.146 231.071 386.94 229.012 386.976 227.21Z" fill="#FCACAC"/>
<path d="M394.404 264.789C395.47 263.135 397.309 264.128 397.235 262.179C397.235 262.179 394.772 264.017 391.573 263.833L392.602 264.422L394.11 273.688C394.11 273.688 393.338 266.444 394.404 264.789Z" fill="#FF1866"/>
<path d="M397.603 234.748C397.603 234.748 400.067 235.557 402.384 242.837C404.7 250.118 395.14 252.545 395.14 252.545L397.603 234.748Z" fill="#304CCF"/>
<path d="M397.714 234.785C397.64 234.748 397.64 234.748 397.64 234.748V234.821L397.714 234.785Z" fill="white"/>
<path d="M395.25 251.846L395.544 252.434C395.618 252.398 395.691 252.398 395.765 252.361L395.323 251.478L395.25 251.846Z" fill="white"/>
<path d="M365.576 238.462C365.576 238.462 365.687 238.609 365.466 238.719C365.245 238.829 364.4 238.609 364.51 238.866C364.62 239.16 368.518 240.741 368.665 240.705C368.812 240.668 368.334 239.344 368.334 239.344C368.334 239.344 367.819 238.829 367.635 238.792C367.525 238.756 365.576 238.462 365.576 238.462Z" fill="#FCACAC"/>
<path d="M370.835 238.756C370.835 238.756 371.276 237.065 371.018 236.513C370.798 235.961 370.136 237.653 369.768 237.616C369.364 237.616 368.15 234.38 367.415 234.527C366.68 234.675 368.15 236.44 367.856 236.807C367.562 237.175 365.944 235.336 365.613 235.631C365.282 235.925 366.496 237.065 366.422 237.506C366.385 237.947 364.988 236.77 364.767 237.212C364.547 237.653 367.488 240.521 368.665 240.705C369.842 240.926 370.835 238.756 370.835 238.756Z" fill="#FCACAC"/>
<path d="M397.824 234.821C396.427 234.38 388.521 236.145 385.065 239.565L378.225 243.904L372.305 239.234C371.459 238.572 370.246 238.609 369.437 239.307C368.444 240.19 368.444 241.771 369.437 242.653L375.909 248.39C376.754 249.125 377.894 249.419 378.961 249.125L384.476 247.691C384.623 248.684 384.697 249.419 384.697 249.53C384.697 249.566 384.697 249.603 384.66 249.64L384.697 249.603C384.697 250.044 384.623 253.06 384.66 254.714C384.66 255.266 384.697 255.67 384.697 255.744C384.844 256.148 385.285 257.104 386.204 257.693C386.204 257.693 385.984 257.325 385.726 256.773L386.204 257.693C386.204 257.693 388.742 260.928 399.037 257.693C399.037 257.693 398.964 248.721 399.331 244.602C399.662 240.447 399.405 235.336 397.824 234.821Z" fill="#304CCF"/>
<path d="M385.065 239.565C388.558 236.182 396.464 234.38 397.824 234.821C399.405 235.336 399.663 240.447 399.295 244.602C398.927 248.721 399.001 257.693 399.001 257.693C388.742 260.928 386.168 257.693 386.168 257.693L385.69 256.773C385.947 257.325 386.168 257.693 386.168 257.693C385.285 257.104 384.807 256.148 384.66 255.744C384.623 255.633 384.623 255.266 384.623 254.714C384.587 253.06 384.66 250.081 384.66 249.603L384.623 249.64C384.66 249.603 384.66 249.566 384.66 249.53C384.66 249.419 384.55 248.684 384.44 247.691C384.44 247.691 385.727 244.124 383.741 240.337L385.065 239.565Z" fill="#4D89FF"/>
<g opacity="0.1">
<path d="M377.527 295.971C373.445 298.324 373.408 302.148 377.49 304.502C381.571 306.855 388.117 306.855 392.198 304.502C395.177 302.773 395.986 300.273 394.625 298.104C398.339 298.912 402.678 298.471 405.656 296.743C409.738 294.39 409.774 290.566 405.693 288.212C401.648 285.859 395.066 285.859 390.985 288.212C388.006 289.94 387.197 292.441 388.558 294.61C384.844 293.765 380.505 294.243 377.527 295.971Z" fill="#4F53FF"/>
</g>
</g>
<defs>
<filter id="filter0_d" x="0.500061" y="0.930908" width="541" height="394.138" filterUnits="userSpaceOnUse" color-interpolation-filters="sRGB">
<feFlood flood-opacity="0" result="BackgroundImageFix"/>
<feColorMatrix in="SourceAlpha" type="matrix" values="0 0 0 0 0 0 0 0 0 0 0 0 0 0 0 0 0 0 127 0"/>
<feOffset dy="4"/>
<feGaussianBlur stdDeviation="2"/>
<feColorMatrix type="matrix" values="0 0 0 0 0 0 0 0 0 0 0 0 0 0 0 0 0 0 0.25 0"/>
<feBlend mode="normal" in2="BackgroundImageFix" result="effect1_dropShadow"/>
<feBlend mode="normal" in="SourceGraphic" in2="effect1_dropShadow" result="shape"/>
</filter>
</defs>
</svg>
