<svg width="66" height="66" viewBox="0 0 66 66" fill="none" xmlns="http://www.w3.org/2000/svg">
<g clip-path="url(#clip0)">
<path d="M58.2626 44.0744C56.4887 48.8822 53.8058 53.0626 50.2876 56.4983C46.2829 60.4088 41.039 63.5161 34.7015 65.7327C34.4935 65.8052 34.2765 65.8646 34.0584 65.9084C33.7704 65.9653 33.4774 65.996 33.1868 66.0001H33.1299C32.8202 66.0001 32.5091 65.9689 32.2004 65.9084C31.9823 65.8646 31.7683 65.8052 31.5614 65.7342C25.2163 63.5211 19.9659 60.4153 15.9572 56.5048C12.4374 53.0692 9.75507 48.8913 7.98361 44.0835C4.76246 35.342 4.94575 25.7123 5.09329 17.9739L5.09581 17.8551C5.12552 17.2161 5.14465 16.5449 5.15522 15.8037C5.2091 12.1646 8.10245 9.1539 11.742 8.95097C19.3304 8.5275 25.2007 6.0526 30.2164 1.16372L30.2602 1.12344C31.0931 0.359569 32.1425 -0.0150652 33.1868 0.000544598C34.1939 0.0136367 35.197 0.387767 36.0001 1.12344L36.0429 1.16372C41.0597 6.0526 46.9299 8.5275 54.5183 8.95097C58.1579 9.1539 61.0512 12.1646 61.1051 15.8037C61.1157 16.5499 61.1348 17.2201 61.1645 17.8551L61.166 17.9054C61.3131 25.6584 61.4954 35.3073 58.2626 44.0744Z" fill="#4D89FF"/>
<path d="M49.5775 33.0001C49.5775 42.0502 42.2293 49.417 33.1868 49.4493H33.1288C24.0596 49.4493 16.6797 42.0699 16.6797 33.0001C16.6797 23.9308 24.0596 16.5515 33.1288 16.5515H33.1868C42.2293 16.5837 49.5775 23.9505 49.5775 33.0001Z" fill="#33E7D2"/>
<path d="M40.5944 30.6314L33.1864 38.0405L31.5856 39.6412C31.2075 40.0194 30.7115 40.2082 30.216 40.2082C29.72 40.2082 29.2245 40.0194 28.8458 39.6412L25.4042 36.198C24.6478 35.4417 24.6478 34.2166 25.4042 33.4598C26.1595 32.7035 27.3861 32.7035 28.1424 33.4598L30.216 35.5334L37.8562 27.8931C38.6125 27.1363 39.8391 27.1363 40.5944 27.8931C41.3508 28.6495 41.3508 29.8761 40.5944 30.6314Z" fill="#FCFBFE"/>
<path d="M40.5946 30.6314L33.1865 38.0405V32.5625L37.8563 27.8931C38.6127 27.1363 39.8393 27.1363 40.5946 27.8931C41.3509 28.6495 41.3509 29.8761 40.5946 30.6314Z" fill="#FCFBFE"/>
</g>
<defs>
<clipPath id="clip0">
<rect width="66" height="66" fill="white"/>
</clipPath>
</defs>
</svg>
