<svg width="66" height="66" viewBox="0 0 66 66" fill="none" xmlns="http://www.w3.org/2000/svg">
<path d="M31.0713 9.83281H33.3676V21.9024H31.0713V9.83281Z" fill="#4D89FF"/>
<path d="M27.3822 21.9026H23.5146V16.1047L15.707 11.4986L17.6722 8.16754L27.3822 13.896V21.9026Z" fill="#4D89FF"/>
<path d="M42.471 21.9024H38.6035V13.8948L48.3291 8.16656L50.2918 11.499L42.471 16.1054V21.9024Z" fill="#4D89FF"/>
<path d="M31.0381 43.9777H33.3344V56.1671H31.0381V43.9777Z" fill="#4D89FF"/>
<path d="M33 9.83281H34.9623V21.9024H33V9.83281Z" fill="#4D89FF"/>
<path d="M33 43.9777H34.9341V56.1671H33V43.9777Z" fill="#4D89FF"/>
<path d="M48.3291 57.8334L38.6035 52.1052V43.9529H42.471V49.8945L50.2918 54.5009L48.3291 57.8334Z" fill="#4D89FF"/>
<path d="M17.6722 57.8322L15.707 54.5012L23.5146 49.8951V43.9774H27.3822V52.1038L17.6722 57.8322Z" fill="#4D89FF"/>
<path d="M44.0381 31.0949H56.1675V34.9624H44.0381V31.0949Z" fill="#4D89FF"/>
<path d="M52.1035 27.3666H44.0381V23.4991H49.8967L54.5028 15.7059L57.8322 17.6736L52.1035 27.3666Z" fill="#4D89FF"/>
<path d="M54.5005 50.2903L49.8939 42.4559H44.0381V38.5883H52.1063L57.8344 48.33L54.5005 50.2903Z" fill="#4D89FF"/>
<path d="M9.83301 31.0376H21.9624V34.905H9.83301V31.0376Z" fill="#4D89FF"/>
<path d="M11.4999 50.2903L8.16602 48.33L13.8941 38.5883H21.9623V42.4559H16.1065L11.4999 50.2903Z" fill="#4D89FF"/>
<path d="M21.9631 27.3666H13.8977L8.16895 17.6736L11.4983 15.7059L16.1044 23.4991H21.9631V27.3666Z" fill="#4D89FF"/>
<path d="M33.3338 45.9115H20.0283V19.9688H33.3338V45.9115Z" fill="#4D89FF"/>
<path d="M32.9997 11.5497C29.8197 11.5497 27.2324 8.95911 27.2324 5.77487C27.2324 2.59063 29.8197 0 32.9997 0C36.1798 0 36.1798 11.5497 32.9997 11.5497Z" fill="#33E7D2"/>
<path d="M33 0V11.5497C36.1801 11.5497 38.7673 8.95911 38.7673 5.77487C38.7673 2.59063 36.1801 0 33 0Z" fill="#33E7D2"/>
<path d="M16.4382 65.9999C19.6233 65.9999 22.2054 63.4144 22.2054 60.225C22.2054 57.0357 19.6233 54.4502 16.4382 54.4502C13.253 54.4502 10.6709 57.0357 10.6709 60.225C10.6709 63.4144 13.253 65.9999 16.4382 65.9999Z" fill="#33E7D2"/>
<path d="M21.2054 5.77487C21.2054 8.4132 19.0698 10.5497 16.4382 10.5497C13.8065 10.5497 11.6709 8.4132 11.6709 5.77487C11.6709 3.13654 13.8065 1 16.4382 1C19.0698 1 21.2054 3.13654 21.2054 5.77487Z" fill="#33E7D2" stroke="#33E7D2" stroke-width="2"/>
<path d="M5.76727 22.1399C8.95244 22.1399 11.5345 19.5544 11.5345 16.365C11.5345 13.1756 8.95244 10.5901 5.76727 10.5901C2.58209 10.5901 0 13.1756 0 16.365C0 19.5544 2.58209 22.1399 5.76727 22.1399Z" fill="#33E7D2"/>
<path d="M5.76727 55.567C8.95244 55.567 11.5345 52.9815 11.5345 49.7922C11.5345 46.6028 8.95244 44.0173 5.76727 44.0173C2.58209 44.0173 0 46.6028 0 49.7922C0 52.9815 2.58209 55.567 5.76727 55.567Z" fill="#33E7D2"/>
<path d="M5.76727 38.8535C8.95244 38.8535 11.5345 36.268 11.5345 33.0786C11.5345 29.8893 8.95244 27.3038 5.76727 27.3038C2.58209 27.3038 0 29.8893 0 33.0786C0 36.268 2.58209 38.8535 5.76727 38.8535Z" fill="#33E7D2"/>
<path d="M60.2331 22.1399C63.4183 22.1399 66.0004 19.5544 66.0004 16.365C66.0004 13.1756 63.4183 10.5901 60.2331 10.5901C57.0479 10.5901 54.4658 13.1756 54.4658 16.365C54.4658 19.5544 57.0479 22.1399 60.2331 22.1399Z" fill="#33E7D2"/>
<path d="M60.2331 55.567C63.4183 55.567 66.0004 52.9815 66.0004 49.7922C66.0004 46.6028 63.4183 44.0173 60.2331 44.0173C57.0479 44.0173 54.4658 46.6028 54.4658 49.7922C54.4658 52.9815 57.0479 55.567 60.2331 55.567Z" fill="#33E7D2"/>
<path d="M60.2331 38.8535C63.4183 38.8535 66.0004 36.268 66.0004 33.0786C66.0004 29.8893 63.4183 27.3038 60.2331 27.3038C57.0479 27.3038 54.4658 29.8893 54.4658 33.0786C54.4658 36.268 57.0479 38.8535 60.2331 38.8535Z" fill="#33E7D2"/>
<path d="M49.4264 11.5497C52.6116 11.5497 55.1937 8.96424 55.1937 5.77487C55.1937 2.5855 52.6116 0 49.4264 0C46.2413 0 43.6592 2.5855 43.6592 5.77487C43.6592 8.96424 46.2413 11.5497 49.4264 11.5497Z" fill="#33E7D2"/>
<path d="M49.4264 65.9999C52.6116 65.9999 55.1937 63.4144 55.1937 60.225C55.1937 57.0357 52.6116 54.4502 49.4264 54.4502C46.2413 54.4502 43.6592 57.0357 43.6592 60.225C43.6592 63.4144 46.2413 65.9999 49.4264 65.9999Z" fill="#33E7D2"/>
<path d="M32.9997 65.9999C29.8197 65.9999 27.2324 63.4093 27.2324 60.225C27.2324 57.0408 29.8196 54.4502 32.9997 54.4502C36.1798 54.4502 36.1798 65.9999 32.9997 65.9999Z" fill="#33E7D2"/>
<path d="M33 54.4502V65.9999C36.1801 65.9999 38.7673 63.4093 38.7673 60.225C38.7673 57.0408 36.1801 54.4502 33 54.4502Z" fill="#33E7D2"/>
<path d="M33 19.9688H45.9715V45.9115H33V19.9688Z" fill="#4D89FF"/>
<path d="M33.3684 40.2883H25.6523V25.5917H33.3684V40.2883Z" fill="#FDFCFF"/>
<path d="M33 25.5919H40.3482V40.2885H33V25.5919Z" fill="#FDFCFF"/>
</svg>
