<svg width="82" height="56" viewBox="0 0 82 56" fill="none" xmlns="http://www.w3.org/2000/svg">
<path d="M81.1346 38.2619V49.1935C81.1346 52.9061 71.2344 56 59.0654 56C46.8963 56 37.2024 53.0093 37.2024 49.2968V48.0593L36.9961 39.3966H37.0991C38.7491 42.5935 47.8245 45.0686 58.7558 45.0686C69.6872 45.0686 80.9283 41.9749 80.9283 38.2621H81.1346V38.2619Z" fill="#33E7D2"/>
<path d="M81.1346 17.0065V27.9381C81.1346 31.6506 71.2344 34.7445 59.0654 34.7445C46.8963 34.7445 37.2024 31.7538 37.2024 28.0413V26.8038L36.9961 18.1411H37.0991C38.7491 21.338 47.8245 23.8131 58.7558 23.8131C69.6872 23.8131 80.9283 20.7194 80.9283 17.0067H81.1346V17.0065Z" fill="#33E7D2"/>
<path d="M37.0994 39.3962L36.9963 37.1274L36.79 27.846C37.5119 31.3523 47.1028 34.1367 58.7563 34.1367C70.4097 34.1367 80.7225 31.146 81.0318 27.5365H81.1348V38.2618H80.9286C80.9286 41.9744 70.9251 45.0683 58.7561 45.0683C46.5872 45.0681 38.7496 42.5932 37.0994 39.3962Z" fill="#4D89FF"/>
<path d="M37.0994 18.1407L36.9963 15.8719L36.79 6.59053C37.5119 10.0968 47.1028 12.8812 58.7563 12.8812C70.4097 12.8812 80.7225 9.89054 81.0318 6.28102H81.1348V17.0063H80.9286C80.9286 20.7189 70.9251 23.8128 58.7561 23.8128C46.5872 23.8126 38.7496 21.3377 37.0994 18.1407Z" fill="#4D89FF"/>
<path d="M44.0363 28.4033C43.0051 23.6593 40.4268 19.3281 36.7142 16.1312C34.4454 14.0686 31.764 12.6249 28.8765 11.7998C26.814 11.0779 24.5452 10.7686 22.3796 10.7686C10.1073 10.6652 0.103844 20.4624 0.000805366 32.7344C-0.102233 45.0065 9.69475 55.01 21.967 55.113C27.6391 55.113 33.0017 53.0504 37.2298 49.2347C40.1175 46.5533 42.283 43.1502 43.4175 39.4375C44.1393 37.2719 44.4486 35.1061 44.4486 32.8373C44.4488 31.3939 44.0363 29.847 44.0363 28.4033Z" fill="#4D89FF"/>
<path d="M81.0318 6.70305V6.90933C80.7225 10.5188 70.719 13.5095 58.7563 13.5095C46.7935 13.5095 37.5119 10.7251 36.79 7.21884V6.70325C36.79 6.49697 36.79 6.2907 36.8931 6.08442C38.0275 2.68118 47.2058 9.7707e-09 58.4468 9.7707e-09H58.7561C70.9253 -0.000197383 81.0318 2.9905 81.0318 6.70305Z" fill="#33E7D2"/>
<path d="M22.3794 30.1564C20.5231 30.1564 18.9761 28.6095 18.9761 26.7532C18.9761 24.8969 20.5231 23.35 22.3794 23.35C24.2357 23.35 25.7826 24.8969 25.7826 26.7532C25.7826 27.8876 26.7108 28.8158 27.8452 28.8158C28.9796 28.8158 29.9077 27.8876 29.9077 26.7532C29.9077 23.4532 27.6389 20.4625 24.4419 19.5344V18.7093C24.4419 17.5749 23.5138 16.6467 22.3794 16.6467C21.245 16.6467 20.3168 17.5749 20.3168 18.7093V19.5344C17.0168 20.3595 14.748 23.3502 14.851 26.7532C14.851 30.8783 18.2543 34.2815 22.3794 34.2815C24.2357 34.2815 25.7826 35.8285 25.7826 37.6848C25.7826 39.5411 24.2357 41.088 22.3794 41.088C20.5231 41.088 18.9761 39.5411 18.9761 37.6848C18.9761 36.5504 18.048 35.6222 16.9136 35.6222C15.7792 35.6222 14.851 36.5504 14.851 37.6848C14.851 41.088 17.1199 43.9755 20.3168 44.9036V46.5536C20.3168 47.688 21.245 48.6162 22.3794 48.6162C23.5138 48.6162 24.4419 47.688 24.4419 46.5536V44.9036C28.4638 43.7692 30.7326 39.5411 29.4952 35.519C28.567 32.4253 25.6794 30.1564 22.3794 30.1564Z" fill="#FDFDFF"/>
</svg>
