<svg width="66" height="66" viewBox="0 0 66 66" fill="none" xmlns="http://www.w3.org/2000/svg">
<g clip-path="url(#clip0)">
<path d="M22.1062 0L23.9931 18.75L22.1062 46.7478H16.0895C14.8408 46.7478 13.6836 46.0725 13.0703 44.9837C12.4569 43.8948 12.4788 42.5546 13.127 41.4863L19.6694 30.6966H3.4957C2.20707 30.6966 1.03312 29.9891 0.431328 28.85C-0.170464 27.7095 -0.0918575 26.341 0.634932 25.2766L16.7764 1.51801C17.422 0.566999 18.4928 0 19.6423 0L22.1062 0Z" fill="#33E7D2"/>
<path d="M43.1589 21.4944L27.3538 45.2053C26.7094 46.1718 25.6322 46.7478 24.4711 46.7478H22.1064V0H28.9027C30.1875 0 31.3601 0.703594 31.9632 1.83888C32.5663 2.97288 32.4941 4.33883 31.7751 5.40324L24.5497 16.1079H40.2762C41.5558 16.1079 42.7272 16.8089 43.3316 17.9378C43.9346 19.0653 43.8689 20.4287 43.1589 21.4944Z" fill="#33E7D2"/>
<path d="M48.6144 28.5007L50.1281 43.5412L48.6144 65.9999H43.7881C42.7864 65.9999 41.8582 65.4582 41.3661 64.5848C40.8741 63.7113 40.8916 62.6362 41.4116 61.7793L46.6597 53.1242H33.6858C32.6521 53.1242 31.7105 52.5566 31.2278 51.6429C30.7451 50.7281 30.8081 49.6303 31.391 48.7764L44.339 29.7183C44.8569 28.9554 45.7159 28.5007 46.6379 28.5007H48.6144Z" fill="#4D89FF"/>
<path d="M65.5017 45.7426L52.8235 64.7626C52.3066 65.5378 51.4424 65.9999 50.5111 65.9999H48.6143V28.5007H54.066C55.0966 28.5007 56.0372 29.0651 56.5209 29.9758C57.0047 30.8854 56.9468 31.9812 56.37 32.835L50.5741 41.4219H63.1894C64.2158 41.4219 65.1554 41.9843 65.6402 42.8898C66.124 43.7942 66.0713 44.8877 65.5017 45.7426Z" fill="#4D89FF"/>
</g>
<defs>
<clipPath id="clip0">
<rect width="66" height="66" fill="white"/>
</clipPath>
</defs>
</svg>
