<svg width="66" height="66" viewBox="0 0 66 66" fill="none" xmlns="http://www.w3.org/2000/svg">
<g clip-path="url(#clip0)">
<path d="M32.6111 57.2263L24.5664 49.1816L16.499 57.5228L24.4077 65.4297C25.163 66.185 26.3867 66.1851 27.1422 65.4297L32.6111 59.9607C33.3664 59.2054 33.3664 57.9817 32.6111 57.2263Z" fill="#4D89FF"/>
<path d="M47.3306 29.7921L38.944 21.4055L27.4491 9.91059L22.8365 9.16557C20.433 18.2955 17.306 26.1218 9.62793 34.2431L11.9923 40.4749L15.9334 44.4161L19.3647 47.8473L26.1064 50.7216C34.1155 43.1475 41.8734 39.9624 51.1837 37.5127L47.3306 29.7921Z" fill="#33E7D2"/>
<path d="M40.7326 11.7352C39.6637 11.7352 38.7988 10.8703 38.7988 9.80146V1.9375C38.7988 0.868645 39.6637 0.0037384 40.7326 0.0037384C41.8015 0.0037384 42.6664 0.868645 42.6664 1.9375V9.80146C42.6664 10.8704 41.8015 11.7352 40.7326 11.7352Z" fill="#33E7D2"/>
<path d="M47.6028 15.3988C46.6473 14.921 46.2601 13.7596 46.7379 12.8041L50.6054 5.06902C50.883 4.51378 51.4118 4.12483 52.0256 4.02466C52.645 3.9303 53.2643 4.12857 53.7025 4.56663L55.6721 6.53623L58.4694 1.07246C58.9491 0.116922 60.1066 -0.266478 61.0641 0.207551C62.0196 0.685319 62.4068 1.84673 61.929 2.80227L57.9325 10.6662C57.655 11.2215 57.1262 11.6104 56.5124 11.7106C55.8968 11.8145 55.2736 11.6086 54.8354 11.1686L52.8658 9.19902L50.1975 14.5339C49.7217 15.483 48.5671 15.8777 47.6028 15.3988Z" fill="#4D89FF"/>
<path d="M58.58 23.4379L56.0685 20.4051L53.7023 22.7713C52.947 23.5266 51.7232 23.5266 50.9679 22.7713C50.2125 22.016 50.2125 20.7922 50.9679 20.0368L54.8354 16.1693C55.2188 15.7841 55.7551 15.5876 56.2933 15.6047C56.8372 15.6311 57.3451 15.8841 57.6926 16.3034L60.0701 19.1739L62.5765 16.1745C63.2601 15.353 64.4781 15.2378 65.2996 15.9177C66.123 16.5994 66.2363 17.8193 65.5564 18.6408L61.56 23.4379C60.7857 24.3712 59.3551 24.3718 58.58 23.4379Z" fill="#33E7D2"/>
<path d="M57.5217 32.9107L42.4804 17.8694L27.439 2.82799C26.3682 1.75321 24.5551 2.28461 24.1966 3.72693C23.872 5.03209 23.0652 8.24665 22.8369 9.1657C23.0454 9.37416 30.0262 16.355 37.0106 23.3394C44.3873 30.716 51.7683 38.0971 51.184 37.5128C53.0862 37.0374 54.7209 36.6288 56.6229 36.1534C58.0767 35.7918 58.5852 33.9742 57.5217 32.9107Z" fill="#33E7D2"/>
<path d="M17.8675 42.4824C15.1885 39.8037 12.5099 37.1248 9.62825 34.2432C9.29281 34.598 8.97555 34.9658 8.63018 35.3111C6.60063 37.3407 4.85664 39.0847 2.82696 41.1144C-0.942321 44.8836 -0.942321 51.0192 2.82696 54.7885L4.19413 56.1557L5.5613 57.5228C9.31718 61.2827 15.4386 61.3219 19.2336 57.5228C20.8563 55.8986 23.9561 52.8037 25.0386 51.7196C25.384 51.3742 25.7518 51.0572 26.1066 50.7215C23.2253 47.84 20.5463 45.1615 17.8675 42.4824Z" fill="#4D89FF"/>
</g>
<defs>
<clipPath id="clip0">
<rect width="66" height="66" fill="white"/>
</clipPath>
</defs>
</svg>
