<svg width="79" height="73" viewBox="0 0 79 73" fill="none" xmlns="http://www.w3.org/2000/svg">
<path d="M46.7515 13.0005C33.1154 13.0005 22 24.1159 22 37.752C22 51.3876 33.1154 62.5035 46.7515 62.5035C60.3876 62.5035 71.503 51.3878 71.503 37.752C71.503 24.1159 60.3873 13.0005 46.7515 13.0005Z" fill="#FEA832"/>
<g opacity="0.5" filter="url(#filter0_f)">
<path d="M36.5 15.0005C24.6553 15.0005 15 24.6557 15 36.5005C15 48.3448 24.6553 58.0005 36.5 58.0005C48.3447 58.0005 58 48.345 58 36.5005C58 24.6557 48.3445 15.0005 36.5 15.0005Z" fill="#FEA832"/>
</g>
<path d="M46.751 62.5035V13.0005C60.3869 13.0005 71.5025 24.116 71.5025 37.7521C71.5025 51.3877 60.3867 62.5035 46.751 62.5035Z" fill="#FE9923"/>
<path d="M51.182 26.4126H48.9608V24.1874C48.9608 22.7186 47.8503 21.9622 46.7396 21.9622C45.629 21.9622 44.5185 22.7186 44.5185 24.1874V26.4126H37.8551C34.9233 26.4126 34.9233 30.863 37.8551 30.863H40.0763V44.2141H37.8551C34.9233 44.2141 34.9233 48.6645 37.8551 48.6645H44.5185V50.8897C44.5185 52.3582 45.629 53.1149 46.7396 53.1149C47.8503 53.1149 48.9608 52.3582 48.9608 50.8897V48.6644H51.182C56.8681 48.6644 60.0221 41.8552 56.1128 37.5385C60.0219 33.2215 56.8681 26.4126 51.182 26.4126ZM51.182 44.2139H44.5186V39.7635H51.182C54.1138 39.7637 54.1138 44.2139 51.182 44.2139ZM51.182 35.3133H44.5186V30.863H51.182C54.1138 30.863 54.1138 35.3133 51.182 35.3133Z" fill="#FEDB41"/>
<path d="M56.114 37.5385C60.0189 41.8552 56.8685 48.6645 51.1885 48.6645H48.9697V50.8897C48.9697 52.3582 47.8604 53.1149 46.751 53.1149V44.2142H51.1885C54.1171 44.2142 54.1171 39.7638 51.1885 39.7638H46.751V35.3133H51.1885C54.1171 35.3133 54.1171 30.8629 51.1885 30.8629H46.751V21.9622C47.8603 21.9622 48.9697 22.7186 48.9697 24.1874V26.4126H51.1885C56.8685 26.4126 60.0189 33.2215 56.114 37.5385Z" fill="#FFCC33"/>
<path d="M46 63.0005C60.3594 63.0005 72 51.3599 72 37.0005H46V63.0005Z" fill="white"/>
<g opacity="0.2" filter="url(#filter1_f)">
<path d="M43 67.0005C59.5685 67.0005 73 53.569 73 37.0005H43V67.0005Z" fill="#FE9923"/>
</g>
<mask id="mask0" mask-type="alpha" maskUnits="userSpaceOnUse" x="50" y="40" width="29" height="30">
<path d="M50.5352 69.3588C66.2009 69.3588 78.9006 56.6592 78.9006 40.9934H50.5352V69.3588Z" fill="#E5E5E5"/>
</mask>
<g mask="url(#mask0)">
<path d="M49.1624 14.458C34.5435 14.458 22.627 26.3746 22.627 40.9934C22.627 55.6118 34.5435 67.5288 49.1624 67.5288C63.7812 67.5288 75.6978 55.6119 75.6978 40.9934C75.6978 26.3746 63.7809 14.458 49.1624 14.458Z" fill="#FEA832"/>
<path d="M49.1621 67.5288V14.458C63.7808 14.458 75.6975 26.3746 75.6975 40.9935C75.6975 55.6119 63.7806 67.5288 49.1621 67.5288Z" fill="#FE9923"/>
<path d="M53.9113 28.8368H51.53V26.4513C51.53 24.8766 50.3395 24.0657 49.1488 24.0657C47.9581 24.0657 46.7675 24.8766 46.7675 26.4513V28.8368H39.6239C36.4808 28.8368 36.4808 33.608 39.6239 33.608H42.0052V47.9213H39.6239C36.4808 47.9213 36.4808 52.6925 39.6239 52.6925H46.7675V55.0781C46.7675 56.6524 47.9581 57.4637 49.1488 57.4637C50.3395 57.4637 51.53 56.6524 51.53 55.0781V52.6924H53.9113C60.0073 52.6924 63.3885 45.3924 59.1975 40.7646C63.3884 36.1365 60.0073 28.8368 53.9113 28.8368ZM53.9113 47.9212H46.7677V43.15H53.9113C57.0544 43.1502 57.0544 47.9212 53.9113 47.9212ZM53.9113 38.379H46.7677V33.608H53.9113C57.0544 33.608 57.0544 38.379 53.9113 38.379Z" fill="#FEDB41"/>
<path d="M59.1999 40.7647C63.3862 45.3925 60.0088 52.6925 53.9194 52.6925H51.5408V55.0781C51.5408 56.6524 50.3515 57.4637 49.1621 57.4637V47.9215H53.9194C57.0591 47.9215 57.0591 43.1503 53.9194 43.1503H49.1621V38.3791H53.9194C57.0591 38.3791 57.0591 33.6079 53.9194 33.6079H49.1621V24.0657C50.3514 24.0657 51.5408 24.8766 51.5408 26.4513V28.8369H53.9194C60.0088 28.8369 63.3862 36.1365 59.1999 40.7647Z" fill="#FFCC33"/>
</g>
<defs>
<filter id="filter0_f" x="0" y="0.000488281" width="73" height="73" filterUnits="userSpaceOnUse" color-interpolation-filters="sRGB">
<feFlood flood-opacity="0" result="BackgroundImageFix"/>
<feBlend mode="normal" in="SourceGraphic" in2="BackgroundImageFix" result="shape"/>
<feGaussianBlur stdDeviation="7.5" result="effect1_foregroundBlur"/>
</filter>
<filter id="filter1_f" x="39" y="33.0005" width="38" height="38" filterUnits="userSpaceOnUse" color-interpolation-filters="sRGB">
<feFlood flood-opacity="0" result="BackgroundImageFix"/>
<feBlend mode="normal" in="SourceGraphic" in2="BackgroundImageFix" result="shape"/>
<feGaussianBlur stdDeviation="2" result="effect1_foregroundBlur"/>
</filter>
</defs>
</svg>
