<svg width="47" height="31" viewBox="0 0 47 31" fill="none" xmlns="http://www.w3.org/2000/svg">
<path d="M46.42 20.9316V26.7906C46.42 28.7805 40.7558 30.4387 33.7935 30.4387C26.8312 30.4387 21.285 28.8358 21.285 26.846V26.1827L21.167 21.5398H21.2259C22.17 23.2532 27.3622 24.5798 33.6164 24.5798C39.8706 24.5798 46.302 22.9217 46.302 20.9317H46.42V20.9316Z" fill="#33E7D2"/>
<path d="M46.42 9.53931V15.3983C46.42 17.3881 40.7558 19.0464 33.7935 19.0464C26.8312 19.0464 21.285 17.4435 21.285 15.4536V14.7904L21.167 10.1474H21.2259C22.17 11.8609 27.3622 13.1875 33.6164 13.1875C39.8706 13.1875 46.302 11.5293 46.302 9.53941H46.42V9.53931Z" fill="#33E7D2"/>
<path d="M21.2258 21.5393L21.1668 20.3233L21.0488 15.3487C21.4618 17.228 26.9491 18.7204 33.6164 18.7204C40.2837 18.7204 46.1839 17.1174 46.3609 15.1829H46.4198V20.9313H46.3018C46.3018 22.9211 40.5785 24.5793 33.6163 24.5793C26.6541 24.5792 22.1699 23.2528 21.2258 21.5393Z" fill="#4D89FF"/>
<path d="M21.2258 10.1472L21.1668 8.93119L21.0488 3.95666C21.4618 5.83591 26.9491 7.32827 33.6164 7.32827C40.2837 7.32827 46.1839 5.72536 46.3609 3.79077H46.4198V9.5392H46.3018C46.3018 11.529 40.5785 13.1873 33.6163 13.1873C26.6541 13.1872 22.1699 11.8607 21.2258 10.1472Z" fill="#4D89FF"/>
<path d="M25.1945 15.6475C24.6045 13.1049 23.1294 10.7836 21.0053 9.07012C19.7073 7.96467 18.1732 7.19089 16.5212 6.74866C15.3411 6.36177 14.043 6.19599 12.804 6.19599C5.78269 6.14056 0.0594125 11.3915 0.000460775 17.9688C-0.0584909 24.5462 5.54666 29.9077 12.568 29.9629C15.8132 29.9629 18.8813 28.8574 21.3003 26.8123C22.9524 25.3752 24.1914 23.5513 24.8405 21.5614C25.2535 20.4007 25.4304 19.24 25.4304 18.024C25.4305 17.2504 25.1945 16.4213 25.1945 15.6475Z" fill="#4D89FF"/>
<path d="M46.3609 4.01659V4.12716C46.1839 6.06182 40.4606 7.66479 33.6164 7.66479C26.7721 7.66479 21.4618 6.17238 21.0488 4.29305V4.0167C21.0488 3.90614 21.0488 3.79558 21.1078 3.68501C21.7568 1.86091 27.008 0.423828 33.4393 0.423828H33.6163C40.5787 0.423722 46.3609 2.0267 46.3609 4.01659Z" fill="#33E7D2"/>
<path d="M12.8042 16.5873C11.7422 16.5873 10.8571 15.7582 10.8571 14.7632C10.8571 13.7683 11.7422 12.9392 12.8042 12.9392C13.8663 12.9392 14.7513 13.7683 14.7513 14.7632C14.7513 15.3713 15.2824 15.8687 15.9314 15.8687C16.5804 15.8687 17.1114 15.3713 17.1114 14.7632C17.1114 12.9945 15.8134 11.3916 13.9843 10.8941V10.4519C13.9843 9.84389 13.4533 9.34644 12.8042 9.34644C12.1552 9.34644 11.6242 9.84389 11.6242 10.4519V10.8941C9.73616 11.3364 8.43809 12.9393 8.49705 14.7632C8.49705 16.9742 10.4441 18.7982 12.8042 18.7982C13.8663 18.7982 14.7513 19.6274 14.7513 20.6223C14.7513 21.6172 13.8663 22.4463 12.8042 22.4463C11.7422 22.4463 10.8571 21.6172 10.8571 20.6223C10.8571 20.0143 10.3261 19.5168 9.67709 19.5168C9.02806 19.5168 8.49705 20.0143 8.49705 20.6223C8.49705 22.4463 9.79511 23.9939 11.6242 24.4914V25.3757C11.6242 25.9837 12.1552 26.4812 12.8042 26.4812C13.4533 26.4812 13.9843 25.9837 13.9843 25.3757V24.4914C16.2853 23.8834 17.5834 21.6172 16.8754 19.4615C16.3444 17.8033 14.6923 16.5873 12.8042 16.5873Z" fill="#FDFDFF"/>
</svg>
