<svg width="58" height="59" viewBox="0 0 58 59" fill="none" xmlns="http://www.w3.org/2000/svg">
<g clip-path="url(#clip0)">
<path d="M32.0608 17.0543C26.7233 12.2727 20.7787 7.83953 14.3909 3.8774C13.0164 3.0261 13.5082 0.921218 15.1243 0.76591C24.2362 -0.121762 33.4445 2.24978 41.0516 7.45449C41.9261 8.05136 42.0487 9.30278 41.2939 10.0576L34.498 16.8534C33.8626 17.489 32.7356 17.6589 32.0608 17.0543Z" fill="#C5C9F7"/>
<path d="M53.5139 5.05073C52.3245 3.89538 50.6935 3.14795 48.9265 3.14795C48.4851 3.14795 48.0433 3.31787 47.7374 3.65771L44.1357 7.25949C43.4561 7.90508 43.4561 8.99224 44.1357 9.63795L48.8928 14.463C49.6402 15.2105 50.7275 15.0747 51.3052 14.463L54.9071 10.8613C55.2471 10.5553 55.4169 10.1136 55.4169 9.67193C55.4168 7.87098 54.7031 6.23985 53.5139 5.05073Z" fill="#994C0F"/>
<path d="M55.4172 9.67173C55.4172 10.1134 55.2473 10.5552 54.9074 10.8611L51.3056 14.4628C50.7281 15.0745 49.6406 15.2103 48.8932 14.4628L46.5146 12.0502L53.5143 5.05054C54.7035 6.23988 55.4172 7.87101 55.4172 9.67173Z" fill="#713708"/>
<path d="M39.3105 24.0788L36.8978 21.6664L34.4851 19.2537C33.8398 18.6081 32.7524 18.6081 32.1067 19.2877L11.1191 40.2754C10.4395 40.887 10.4395 42.0425 11.1191 42.654L13.5315 45.0324L15.9442 47.4451C16.6918 48.1928 17.7789 48.0567 18.3227 47.4451L39.3103 26.4573C39.99 25.8457 39.99 24.6905 39.3105 24.0788Z" fill="#994C0F"/>
<path d="M54.6831 44.1662C50.877 37.9777 46.4456 32.0463 41.5113 26.5379C41.0501 26.0236 40.9472 25.2802 41.2507 24.6598C41.4286 24.294 48.2192 17.5608 48.5077 17.2717C48.8643 16.915 49.3655 16.7342 49.8633 16.7806C50.3659 16.8271 50.8223 17.0943 51.1075 17.509C56.3172 25.0747 58.7015 34.2829 57.8205 43.4395C57.6653 45.0592 55.5342 45.5531 54.6831 44.1662Z" fill="#A8AFF1"/>
<path d="M39.3112 24.0792C39.9908 24.691 39.9908 25.8462 39.3112 26.4577L18.3235 47.4454C17.7797 48.057 16.6925 48.193 15.9449 47.4454L13.5322 45.0327L36.8986 21.6665L39.3112 24.0792Z" fill="#713708"/>
<path d="M13.4983 49.8916L11.1197 47.4449L8.74112 45.0664C8.02745 44.3529 6.90642 44.4208 6.32846 45.0664L5.10525 46.2898L1.50347 49.8916C-0.501156 51.8622 -0.501156 55.0903 1.50347 57.0611C3.44024 59.0658 6.77025 59.0658 8.70702 57.0611L12.3088 53.4933V53.4594L13.4981 52.27C14.1777 51.6244 14.1777 50.5373 13.4983 49.8916Z" fill="#994C0F"/>
<path d="M19.5466 46.2221L12.309 53.4596L8.70725 49.8578L5.10547 46.2901V46.256L6.32879 45.0667L11.1199 40.2757L12.309 39.0525H12.343L15.9448 42.6203L19.5466 46.2221Z" fill="#BF6015"/>
<path d="M13.4986 49.892C14.178 50.5376 14.178 51.6247 13.4986 52.2704L12.3092 53.4598V53.4937L8.70746 57.0615C6.77069 59.0662 3.44068 59.0662 1.50391 57.0615L11.1201 47.4453L13.4986 49.892Z" fill="#713708"/>
<path d="M19.5471 46.2221L15.9453 42.6204L8.70777 49.8579L12.3095 53.4597L19.5471 46.2221Z" fill="#994C0F"/>
<path d="M51.3057 12.0843L48.8932 9.67166L46.5147 7.25922C44.6119 5.32245 41.2139 5.32245 39.3111 7.25922L31.9375 14.6326C30.1028 16.6372 30.2048 19.7634 32.1076 21.6662L34.52 24.0448L36.9327 26.4572C38.6317 28.2921 41.8937 28.5299 43.8983 26.6611L51.3058 19.2537C53.3106 17.283 53.3106 14.0551 51.3057 12.0843Z" fill="#E1E4FB"/>
<path d="M51.3053 19.2538L43.8979 26.6612C41.8932 28.53 38.6311 28.2924 36.9322 26.4573L34.5195 24.0449L48.893 9.67163L51.3054 12.0843C53.3103 14.055 53.3103 17.283 51.3053 19.2538Z" fill="#C5C9F7"/>
</g>
<defs>
<clipPath id="clip0">
<rect width="58" height="58" fill="white" transform="translate(0 0.574219)"/>
</clipPath>
</defs>
</svg>
