<svg width="40" height="69" viewBox="0 0 40 69" fill="none" xmlns="http://www.w3.org/2000/svg">
<path d="M14.7005 0L15.5296 8.23865L14.7005 20.5407H12.0568C11.5081 20.5407 10.9996 20.244 10.7301 19.7656C10.4606 19.2871 10.4702 18.6982 10.755 18.2288L13.6297 13.4879H6.52312C5.9569 13.4879 5.44107 13.177 5.17665 12.6765C4.91223 12.1754 4.94677 11.5741 5.26611 11.1064L12.3586 0.667006C12.6422 0.249136 13.1128 0 13.6178 0L14.7005 0Z" fill="#FF507F"/>
<path d="M23.9515 9.44453L17.0068 19.863C16.7237 20.2876 16.2503 20.5407 15.7402 20.5407H14.7012V0H17.6874C18.2519 0 18.7672 0.309155 19.0322 0.807994C19.2972 1.30627 19.2655 1.90646 18.9495 2.37416L15.7747 7.07774H22.6849C23.2471 7.07774 23.7618 7.38576 24.0274 7.88177C24.2924 8.37721 24.2635 8.97627 23.9515 9.44453Z" fill="#D11171"/>
<path d="M26.3477 12.5234L27.0128 19.1322L26.3477 29.0004H24.2271C23.7869 29.0004 23.3791 28.7624 23.1628 28.3786C22.9467 27.9948 22.9544 27.5224 23.1828 27.1459L25.4888 23.3429H19.7882C19.334 23.3429 18.9202 23.0935 18.7081 22.692C18.496 22.29 18.5237 21.8077 18.7799 21.4325L24.4691 13.0585C24.6967 12.7233 25.0741 12.5234 25.4792 12.5234H26.3477Z" fill="#FF507F"/>
<path d="M33.7679 20.0994L28.1972 28.4567C27.97 28.7974 27.5903 29.0004 27.1811 29.0004H26.3477V12.5234H28.7431C29.196 12.5234 29.6092 12.7714 29.8218 13.1716C30.0344 13.5713 30.0089 14.0527 29.7555 14.4279L27.2088 18.201H32.7519C33.2029 18.201 33.6158 18.4481 33.8288 18.8459C34.0413 19.2433 34.0182 19.7238 33.7679 20.0994Z" fill="#D11171"/>
<path d="M20 29.0005C8.9817 29.0005 0 37.9822 0 49.0005C0 59.8004 8.72747 69.0005 20 69.0005C31.2725 69.0005 40 59.8003 40 49.0005C40 37.9822 31.0182 29.0005 20 29.0005Z" fill="#FEDB41"/>
<path d="M40 49.0005C40 59.8004 31.2725 69.0005 20 69.0005V29.0005C31.0182 29.0005 40 37.9822 40 49.0005Z" fill="#FFCC33"/>
<path d="M20.0003 65.3641C10.977 65.3641 3.63672 58.0238 3.63672 49.0005C3.63672 39.9771 10.977 32.6367 20.0003 32.6367C29.0237 32.6367 36.364 39.977 36.364 49.0003C36.364 58.0237 29.0237 65.3641 20.0003 65.3641Z" fill="#FEA832"/>
<path d="M36.3636 49.0003C36.3636 39.977 29.0234 32.6367 20 32.6367V65.3641C29.0234 65.3641 36.3636 58.0238 36.3636 49.0003Z" fill="#FE9923"/>
<path d="M29.0908 45.3643C29.0908 42.3461 26.6546 39.9098 23.6363 39.9098V38.0916C23.6363 37.0732 22.8364 36.2734 21.8182 36.2734C20.7998 36.2734 20.0001 37.0733 20.0001 38.0916V39.9097H12.7273C11.7089 39.9097 10.9092 40.7096 10.9092 41.7278C10.9092 42.7459 11.7091 43.5459 12.7273 43.5459H14.5454V54.4551H12.7273C10.3274 54.4551 10.3274 58.0914 12.7273 58.0914H19.9999V59.9096C19.9999 60.9276 20.7998 61.7277 21.8181 61.7277C22.8364 61.7277 23.6362 60.9276 23.6362 59.9096V58.0914C26.6544 58.0914 29.0907 55.655 29.0907 52.6369C29.0907 51.2188 28.5452 49.9822 27.6726 49.0006C28.5453 48.0188 29.0908 46.7826 29.0908 45.3643ZM23.6363 54.4553H18.1818V50.8189H23.6363C24.6547 50.8189 25.4544 51.6188 25.4544 52.6371C25.4544 53.6552 24.6546 54.4553 23.6363 54.4553ZM23.6363 47.1826H18.1818V43.5462H23.6363C24.6547 43.5462 25.4544 44.3461 25.4544 45.3643C25.4544 46.3824 24.6546 47.1826 23.6363 47.1826Z" fill="#FEDB41"/>
<path d="M27.6726 49.0007C28.5453 49.9823 29.0908 51.2188 29.0908 52.6371C29.0908 55.6551 26.6545 58.0916 23.6363 58.0916V59.9097C23.6363 60.9277 22.8364 61.7278 21.8181 61.7278C20.7998 61.7278 20 60.9277 20 59.9097V54.4552H23.6364C24.6547 54.4552 25.4545 53.6551 25.4545 52.6371C25.4545 51.6187 24.6546 50.8189 23.6364 50.8189H20V47.1826H23.6364C24.6547 47.1826 25.4545 46.3824 25.4545 45.3644C25.4545 44.3461 24.6546 43.5463 23.6364 43.5463H20V38.0916C20 37.0732 20.7999 36.2734 21.8181 36.2734C22.8365 36.2734 23.6363 37.0733 23.6363 38.0916V39.9097C26.6545 39.9097 29.0908 42.3459 29.0908 45.3642C29.0909 46.7826 28.5453 48.0188 27.6726 49.0007Z" fill="#FFCC33"/>
</svg>
