<svg width="58" height="59" viewBox="0 0 58 59" fill="none" xmlns="http://www.w3.org/2000/svg">
<g clip-path="url(#clip0)">
<path d="M29.1133 10.7695C18.8159 10.7695 10.1953 19.1636 10.1953 29.4609C10.1953 39.7581 18.8159 48.3789 29.1133 48.3789C39.4107 48.3789 47.8047 39.7581 47.8047 29.4609C47.8047 19.1636 39.4107 10.7695 29.1133 10.7695Z" fill="#FEA832"/>
<path d="M47.8047 29.4609C47.8047 39.7581 39.4107 48.3789 29.1133 48.3789V10.7695C39.4107 10.7695 47.8047 19.1636 47.8047 29.4609Z" fill="#FE9923"/>
<path d="M58 29.4609C58 35.0004 56.4029 40.6304 53.4122 45.2862C52.2227 47.1893 49.3341 45.3543 50.5574 43.4512C53.2083 39.339 54.6016 34.3547 54.6016 29.4609C54.6016 15.3914 43.1828 3.97266 29.1133 3.97266C22.6224 3.97266 16.2107 6.41942 11.4867 10.8376C9.85559 12.3667 7.51066 9.88594 9.17579 8.35653C14.5454 3.32695 21.7728 0.574219 29.1133 0.574219C45.052 0.574219 58 13.5223 58 29.4609Z" fill="#18A7FC"/>
<path d="M48.8242 50.7916C43.4546 55.8214 36.4538 58.5741 29.1133 58.5741C13.1746 58.5741 0 45.3995 0 29.4608C0 23.9214 1.59715 18.5178 4.58778 13.8619C5.77734 11.9588 8.63192 13.8281 7.44258 15.6972C4.79168 19.8092 3.39844 24.5671 3.39844 29.4608C3.39844 43.5304 15.0438 55.1757 29.1133 55.1757C35.6042 55.1757 41.7893 52.7287 46.5133 48.3107C48.1785 46.7814 50.4556 49.2624 48.8242 50.7916Z" fill="#18A7FC"/>
<path d="M8.49609 17.5664C5.68513 17.5664 3.39844 15.2797 3.39844 12.4688C3.39844 9.65779 5.68513 7.37109 8.49609 7.37109C11.3071 7.37109 13.5938 9.65779 13.5938 12.4688C13.5938 15.2797 11.3071 17.5664 8.49609 17.5664Z" fill="#1DE8F1"/>
<path d="M32.5122 20.9648H30.813V19.2656C30.813 18.144 29.9634 17.5664 29.1138 17.5664C28.2642 17.5664 27.4146 18.144 27.4146 19.2656V20.9648H22.3169C20.0741 20.9648 20.0741 24.3633 22.3169 24.3633H24.0161V34.5586H22.3169C20.0741 34.5586 20.0741 37.957 22.3169 37.957H27.4146V39.6562C27.4146 40.7776 28.2642 41.3555 29.1138 41.3555C29.9634 41.3555 30.813 40.7776 30.813 39.6562V37.957H32.5122C36.8623 37.957 39.2751 32.7573 36.2845 29.4609C39.2751 26.1643 36.8623 20.9648 32.5122 20.9648ZM32.5122 34.5586H27.4146V31.1602H32.5122C34.7551 31.1602 34.7551 34.5586 32.5122 34.5586ZM32.5122 27.7617H27.4146V24.3633H32.5122C34.7551 24.3633 34.7551 27.7617 32.5122 27.7617Z" fill="#FEDB41"/>
<path d="M48.8242 50.7916C43.4546 55.8214 36.4538 58.5741 29.1133 58.5741V55.1757C35.6042 55.1757 41.7893 52.7287 46.5133 48.3107C48.1785 46.7814 50.4556 49.2624 48.8242 50.7916Z" fill="#1689FC"/>
<path d="M58 29.4609C58 35.0004 56.4028 40.6304 53.4122 45.2862C52.2227 47.1893 49.3341 45.3543 50.5574 43.4512C53.2083 39.339 54.6016 34.3547 54.6016 29.4609C54.6016 15.3914 43.1828 3.97266 29.1133 3.97266V0.574219C45.052 0.574219 58 13.5223 58 29.4609Z" fill="#1689FC"/>
<path d="M36.284 29.4609C39.2746 32.7573 36.8618 37.957 32.5117 37.957H30.8125V39.6562C30.8125 40.7776 29.9629 41.3555 29.1133 41.3555V34.5586H32.5117C34.7546 34.5586 34.7546 31.1602 32.5117 31.1602H29.1133V27.7617H32.5117C34.7546 27.7617 34.7546 24.3633 32.5117 24.3633H29.1133V17.5664C29.9629 17.5664 30.8125 18.144 30.8125 19.2656V20.9648H32.5117C36.8618 20.9648 39.2746 26.1643 36.284 29.4609Z" fill="#FFCC33"/>
<path d="M49.5039 51.7773C46.6929 51.7773 44.4062 49.4906 44.4062 46.6797C44.4062 43.8687 46.6929 41.582 49.5039 41.582C52.3149 41.582 54.6016 43.8687 54.6016 46.6797C54.6016 49.4906 52.3149 51.7773 49.5039 51.7773Z" fill="#1BD9DE"/>
</g>
<defs>
<clipPath id="clip0">
<rect width="58" height="58" fill="white" transform="translate(0 0.574219)"/>
</clipPath>
</defs>
</svg>
