<svg width="43" height="44" viewBox="0 0 43 44" fill="none" xmlns="http://www.w3.org/2000/svg">
<g clip-path="url(#clip0)">
<path d="M28.9148 39.916H8.84262C8.14695 39.916 7.58301 39.352 7.58301 38.6563C7.58301 37.9607 8.14695 37.3967 8.84262 37.3967H28.9148C29.6093 37.3967 30.1745 36.8316 30.1745 36.137C30.1745 35.4423 29.6094 34.8772 28.9148 34.8772H19.0344C16.9506 34.8772 15.2554 33.1819 15.2554 31.0982C15.2554 29.0144 16.9506 27.3192 19.0344 27.3192H31.4341C32.1287 27.3192 32.6939 26.7541 32.6939 26.0595C32.6939 25.3648 32.1288 24.7997 31.4341 24.7997H21.5538C19.47 24.7997 17.7748 23.1044 17.7748 21.0207C17.7748 18.937 19.47 17.2417 21.5538 17.2417H35.2972C35.9929 17.2417 36.5568 17.8056 36.5568 18.5013C36.5568 19.197 35.9929 19.7609 35.2972 19.7609H21.5538C20.8591 19.7609 20.294 20.3261 20.294 21.0207C20.294 21.7153 20.8591 22.2805 21.5538 22.2805H31.4341C33.5178 22.2805 35.2131 23.9757 35.2131 26.0595C35.2131 28.1432 33.5178 29.8384 31.4341 29.8384H19.0344C18.3397 29.8384 17.7746 30.4035 17.7746 31.0982C17.7746 31.7928 18.3397 32.358 19.0344 32.358H28.9148C30.9984 32.358 32.6937 34.0532 32.6937 36.137C32.6937 38.2207 30.9985 39.916 28.9148 39.916Z" fill="#4D89FF"/>
<path d="M36.2969 4.23047C35.7446 4.23047 35.2969 4.67818 35.2969 5.23047V13.8824C35.2969 14.578 35.8608 15.142 36.5565 15.142C37.2522 15.142 37.8161 14.578 37.8161 13.8824V11.3552H41.9997C42.5519 11.3552 42.9997 10.9075 42.9997 10.3552V5.23047C42.9997 4.67818 42.5519 4.23047 41.9997 4.23047H36.2969Z" fill="#4D89FF"/>
<path d="M7.58302 16.7004C3.4017 16.7004 0 20.1021 0 24.2834C0 26.305 1.16724 28.677 3.4693 31.3337C5.09974 33.2152 6.71179 34.5562 6.77964 34.6123C7.24566 34.9981 7.92022 34.9981 8.38624 34.6123C8.45409 34.5562 10.0661 33.2152 11.6965 31.3337C13.9986 28.677 15.1658 26.305 15.1658 24.2834C15.166 20.1021 11.7643 16.7004 7.58302 16.7004ZM7.58302 26.6194C6.29495 26.6194 5.24703 25.5715 5.24703 24.2834C5.24703 22.9953 6.29495 21.9473 7.58302 21.9473C8.8711 21.9473 9.91901 22.9952 9.91901 24.2834C9.91901 25.5715 8.8711 26.6194 7.58302 26.6194Z" fill="#33E7D2"/>
</g>
<defs>
<clipPath id="clip0">
<rect width="43" height="43" fill="white" transform="translate(0 0.573242)"/>
</clipPath>
</defs>
</svg>
