<svg width="43" height="38" viewBox="0 0 43 38" fill="none" xmlns="http://www.w3.org/2000/svg">
<g opacity="0.5">
<path d="M42.2942 21.2694C41.6666 18.4112 40.0971 15.8018 37.8373 13.8756C36.4562 12.633 34.8241 11.7632 33.0665 11.266C31.811 10.8311 30.43 10.6448 29.1118 10.6448C21.6416 10.5825 15.5525 16.4851 15.4897 23.8788C15.427 31.2726 21.3905 37.2995 28.8606 37.3616C32.3132 37.3616 35.5774 36.1189 38.1511 33.82C39.9088 32.2045 41.227 30.1542 41.9176 27.9173C42.357 26.6126 42.5452 25.3077 42.5452 23.9408C42.5454 23.0712 42.2942 22.1392 42.2942 21.2694Z" fill="#4D89FF"/>
<path d="M29.1119 22.3254C27.982 22.3254 27.0404 21.3933 27.0404 20.2749C27.0404 19.1565 27.982 18.2245 29.1119 18.2245C30.2418 18.2245 31.1835 19.1565 31.1835 20.2749C31.1835 20.9584 31.7484 21.5176 32.439 21.5176C33.1295 21.5176 33.6944 20.9584 33.6944 20.2749C33.6944 18.2867 32.3134 16.4848 30.3674 15.9256V15.4285C30.3674 14.745 29.8024 14.1858 29.1119 14.1858C28.4214 14.1858 27.8564 14.745 27.8564 15.4285V15.9256C25.8477 16.4227 24.4667 18.2246 24.5294 20.2749C24.5294 22.7603 26.601 24.8108 29.1119 24.8108C30.2418 24.8108 31.1835 25.7428 31.1835 26.8612C31.1835 27.9796 30.2418 28.9116 29.1119 28.9116C27.982 28.9116 27.0404 27.9796 27.0404 26.8612C27.0404 26.1777 26.4754 25.6185 25.7849 25.6185C25.0944 25.6185 24.5294 26.1777 24.5294 26.8612C24.5294 28.9116 25.9104 30.6513 27.8564 31.2105V32.2047C27.8564 32.8881 28.4214 33.4473 29.1119 33.4473C29.8024 33.4473 30.3674 32.8881 30.3674 32.2047V31.2105C32.8155 30.5271 34.1966 27.9796 33.4433 25.5563C32.8784 23.6924 31.1206 22.3254 29.1119 22.3254Z" fill="#FDFDFF"/>
</g>
<g opacity="0.5">
<path d="M17.5645 9.69742C17.5562 7.96168 16.9702 6.25536 15.8983 4.86147C15.2514 3.97157 14.4123 3.26745 13.454 2.76438C12.7794 2.35869 12.0009 2.08197 11.2357 1.9211C6.90717 0.97325 2.63722 3.65657 1.67977 7.94094C0.722321 12.2253 3.43324 16.4517 7.76183 17.3994C9.76602 17.8207 11.8156 17.4978 13.596 16.4773C14.8176 15.7541 15.8382 14.7248 16.5177 13.5105C16.9353 12.8068 17.2071 12.0723 17.3774 11.2788C17.4858 10.774 17.4561 10.2023 17.5645 9.69742Z" fill="#33E7D2"/>
<path d="M9.78114 8.7014C9.12524 8.5635 8.69473 7.90754 8.83405 7.25833C8.97336 6.60912 9.63608 6.183 10.292 6.3209C10.9479 6.4588 11.3784 7.11475 11.2391 7.76397C11.1539 8.16072 11.4122 8.55427 11.8131 8.63854C12.2139 8.72282 12.6115 8.46716 12.6966 8.07041C12.9443 6.91626 12.3671 5.70175 11.3071 5.13965L11.3691 4.85108C11.4542 4.45433 11.1959 4.06078 10.7951 3.9765C10.3942 3.89223 9.99662 4.14789 9.91148 4.54464L9.84956 4.83321C8.6216 4.87663 7.59547 5.75405 7.37647 6.95189C7.06687 8.3946 8.01396 9.83767 9.47154 10.1441C10.1274 10.282 10.558 10.938 10.4186 11.5872C10.2793 12.2364 9.61661 12.6625 8.9607 12.5246C8.3048 12.3867 7.87429 11.7308 8.01361 11.0815C8.09875 10.6848 7.84046 10.2912 7.43962 10.207C7.03878 10.1227 6.64117 10.3784 6.55603 10.7751C6.30061 11.9653 6.88558 13.1438 7.94555 13.7059L7.82171 14.2829C7.73657 14.6797 7.99486 15.0732 8.3957 15.1575C8.79654 15.2418 9.19415 14.9861 9.27929 14.5894L9.40312 14.0123C10.9094 13.9143 12.0284 12.6041 11.893 11.1055C11.7972 9.95456 10.9472 8.94654 9.78114 8.7014Z" fill="#FDFDFF"/>
</g>
</svg>
