<svg width="62" height="55" xmlns="http://www.w3.org/2000/svg" xmlns:xlink="http://www.w3.org/1999/xlink" overflow="hidden"><defs><filter id="fx0" x="-10%" y="-10%" width="120%" height="120%" filterUnits="userSpaceOnUse" primitiveUnits="userSpaceOnUse"><feComponentTransfer color-interpolation-filters="sRGB"><feFuncR type="discrete" tableValues="0 0"/><feFuncG type="discrete" tableValues="0 0"/><feFuncB type="discrete" tableValues="0 0"/><feFuncA type="linear" slope="0.4" intercept="0"/></feComponentTransfer><feGaussianBlur stdDeviation="2.22222 2.22222"/></filter><clipPath id="clip1"><rect x="857" y="577" width="62" height="55"/></clipPath><clipPath id="clip2"><rect x="3" y="3" width="57" height="50"/></clipPath><clipPath id="clip3"><rect x="0" y="0" width="62" height="55"/></clipPath><clipPath id="clip4"><rect x="7" y="7" width="48" height="41"/></clipPath><clipPath id="clip5"><rect x="7" y="7" width="48" height="41"/></clipPath><clipPath id="clip6"><rect x="7" y="7" width="48" height="41"/></clipPath><clipPath id="clip7"><rect x="865" y="585" width="46" height="39"/></clipPath><clipPath id="clip8"><rect x="865" y="585" width="46" height="39"/></clipPath><clipPath id="clip9"><rect x="865" y="585" width="46" height="39"/></clipPath></defs><g clip-path="url(#clip1)" transform="translate(-857 -577)"><g clip-path="url(#clip2)" filter="url(#fx0)" transform="translate(857 577)"><g clip-path="url(#clip3)"><g clip-path="url(#clip4)"><g clip-path="url(#clip5)"><g clip-path="url(#clip6)"><path d="M18.8541 8.2875C12.4313 8.2875 7.25156 13.4672 7.25156 19.89 7.25156 21.9204 7.79025 23.8266 8.70187 25.4841 9.57206 24.5724 10.5251 23.6608 11.5611 22.6663 14.1716 20.2215 17.238 17.7353 19.8071 15.912 19.9729 15.7877 20.1386 15.7048 20.3458 15.7048 20.8016 15.7048 21.1746 16.0777 21.1746 16.5336 21.1746 16.8236 21.0502 17.0308 20.8431 17.1966L20.8431 17.1966C17.1551 19.8486 12.2655 23.9509 8.9505 27.6803 8.9505 27.6803 8.49469 28.1775 8.2875 28.4261L8.2875 28.4261C6.42281 30.6223 5.17969 32.6113 5.17969 34.0202L7.66594 34.0202C7.66594 33.1086 9.11625 31.1196 11.3124 28.7576 13.3429 30.498 15.9534 31.5339 18.8541 31.5339 20.9259 31.5339 22.9149 30.9953 24.6139 30.0008L24.6139 30.0008C33.4815 25.0697 34.6003 15.9949 34.6003 5.80125 34.6003 5.80125 24.9454 8.45325 18.8541 8.2875Z" fill="#00B050" transform="matrix(1.17949 0 0 1 7.53998 7.60999)"/></g></g></g></g></g><g clip-path="url(#clip7)"><g clip-path="url(#clip8)"><g clip-path="url(#clip9)"><path d="M18.4844 8.125C12.1875 8.125 7.10938 13.2031 7.10938 19.5 7.10938 21.4906 7.6375 23.3594 8.53125 24.9844 9.38438 24.0906 10.3187 23.1969 11.3344 22.2219 13.8938 19.825 16.9 17.3875 19.4187 15.6 19.5813 15.4781 19.7437 15.3969 19.9469 15.3969 20.3938 15.3969 20.7594 15.7625 20.7594 16.2094 20.7594 16.4937 20.6375 16.6969 20.4344 16.8594L20.4344 16.8594C16.8188 19.4594 12.025 23.4812 8.775 27.1375 8.775 27.1375 8.32812 27.625 8.125 27.8687L8.125 27.8687C6.29688 30.0219 5.07812 31.9719 5.07812 33.3531L7.51562 33.3531C7.51562 32.4594 8.9375 30.5094 11.0906 28.1938 13.0813 29.9 15.6406 30.9156 18.4844 30.9156 20.5156 30.9156 22.4656 30.3875 24.1313 29.4125L24.1313 29.4125C32.825 24.5781 33.9219 15.6812 33.9219 5.6875 33.9219 5.6875 24.4563 8.2875 18.4844 8.125Z" fill="#00B050" transform="matrix(1.17949 0 0 1 865 585)"/></g></g></g></g></svg>