<svg width="116" height="33" viewBox="0 0 116 33" fill="none" xmlns="http://www.w3.org/2000/svg">
<path d="M94.9403 10.7564C93.4025 10.7564 92.6734 13.4612 93.139 17.4576C93.7027 22.3226 98.0813 22.3064 101.047 21.0755L101.043 23.4766C99.2209 23.9686 97.7341 24.0921 96.4475 24.0921C88.9728 24.0921 88.2111 17.9982 88.2111 16.1761C88.2111 13.0826 89.318 8.80677 95.2425 8.80677C99.1718 8.80677 101.414 11.3415 101.451 14.7387H96.7211C96.713 12.619 96.2637 10.7625 94.9403 10.7625V10.7564ZM110.809 14.2427V13.939C110.747 12.453 110.441 10.7544 109.154 10.7544C107.913 10.7544 107.492 12.1776 107.316 14.1475L107.306 14.2406H110.807L110.809 14.2427ZM115.804 16.3684H107.253L107.257 16.4575C107.563 22.4501 112.061 22.3226 115.234 21.0735L115.232 23.4786C113.415 23.9706 112.148 24.0941 110.743 24.0941C103.473 24.0941 102.39 18.7432 102.39 16.006C102.39 12.8417 103.779 8.79867 109.334 8.80475C113.433 8.80677 115.804 11.3698 115.804 14.927V16.3644V16.3684ZM64.6741 21.616L64.6578 15.9676L64.5638 15.9757C63.3385 16.083 61.5413 16.6296 61.5413 19.0793C61.5392 21.3711 62.6645 21.5695 63.7367 21.614L64.6761 21.616H64.6741ZM69.6102 23.6406L61.6189 23.6386C58.674 23.6345 56.5541 22.4481 56.5582 19.2129C56.5623 16.581 58.098 15.3136 59.8707 14.6982C60.7591 14.3905 61.7047 14.2487 62.5461 14.1819C63.3875 14.1151 64.1186 14.1273 64.572 14.1252H64.6578V13.6677C64.6618 10.2827 61.2533 10.6451 59.3275 11.2018C58.9599 11.3132 58.627 11.4306 58.3472 11.546V9.33315C60.0484 8.93634 61.2063 8.8007 63.0137 8.8007C67.2882 8.8007 69.6102 10.7888 69.6102 14.1111V23.6386V23.6406ZM56.4683 10.9204C55.3002 10.973 53.5071 11.386 53.5071 14.0908L53.4989 23.6406H48.5444L48.5505 13.9349C48.5546 11.0196 51.2463 8.80272 55.4594 8.80272H56.4642L56.4663 10.9204H56.4683ZM48.4729 3.24739L48.4709 5.32659L47.027 5.36303C46.5307 5.40352 46.059 5.4845 45.6505 5.65051C44.8173 5.99469 44.2618 6.69315 44.2618 8.07389V9.29874H47.754L47.752 11.4043H44.2516L44.2556 23.6406H39.3073V9.20561C39.3073 3.87094 42.9976 3.24536 47.4702 3.24536H48.4709L48.4729 3.24739ZM86.0095 23.6426H81.0305L81.0203 15.0019C81.0203 11.5966 79.7173 11.4184 77.9038 11.4083H77.5525L77.5566 23.6426H72.594L72.5899 9.23193C72.9922 9.25824 74.334 9.30076 78.8085 9.30076C85.983 9.30076 86.0034 12.6008 86.0054 15.2833L86.0075 23.6446L86.0095 23.6426ZM33.6625 32.9514C31.9021 32.9514 30.4766 31.5343 30.4766 29.7871C30.4766 28.0399 31.9061 26.6227 33.6625 26.6227C35.4188 26.6227 36.8484 28.0399 36.8484 29.7871C36.8484 31.5343 35.4188 32.9514 33.6625 32.9514Z" fill="#FFCD00"/>
<path d="M36.1424 9.29672L36.1343 23.6406H31.1818L31.1859 9.29672H36.1424ZM33.6631 6.33279C31.9027 6.33279 30.4772 4.91561 30.4772 3.17046C30.4772 1.42531 31.9068 0.00610352 33.6631 0.00610352C35.4195 0.00610352 36.849 1.42328 36.849 3.17046C36.849 4.91764 35.4195 6.33279 33.6631 6.33279ZM8.41475 16.2976C8.41475 13.1676 7.67954 11.2403 5.40855 11.2403H5.0001V21.6626H5.48003C7.68566 21.6626 8.4127 19.5773 8.4127 16.2976H8.41475ZM0.0210852 23.6386V3.24537H5.0001L4.99806 9.29874H6.57468C10.0261 9.29874 11.7314 10.6349 12.5789 12.1675C13.4366 13.7102 13.4366 15.4675 13.4366 16.334C13.4366 18.6096 12.7116 23.6426 7.02397 23.6426L0.019043 23.6386H0.0210852ZM20.5866 11.2362V21.6626H20.995C23.2681 21.6626 23.9971 19.7352 23.9971 16.6013C23.9971 13.3256 23.2681 11.2362 21.0645 11.2362H20.5866ZM29.0252 16.6053C29.0252 17.4698 29.0252 19.2291 28.1674 20.7718C27.3158 22.3044 25.6105 23.6406 22.1632 23.6406H20.5866V29.694H15.6096V9.29874L22.6145 9.29874C28.3043 9.29672 29.0272 14.3297 29.0272 16.6073L29.0252 16.6053Z" fill="#5E514D"/>
</svg>
