<svg width="143" height="30" viewBox="0 0 143 30" fill="none" xmlns="http://www.w3.org/2000/svg">
<path d="M98.422 13.0705C98.422 12.4524 98.0197 12.0305 97.3426 12.0305H94.8896V14.1104H97.3721C98.0197 14.1104 98.422 13.6885 98.422 13.0705ZM98.7654 16.2687C98.7654 15.6507 98.3435 15.1896 97.6468 15.1896H94.8896V17.3479H97.6664C98.3337 17.3479 98.7654 16.9261 98.7654 16.2687ZM93.6729 10.9317H97.5094C98.8439 10.9317 99.6485 11.8049 99.6485 12.9037C99.6485 13.7474 99.1579 14.3459 98.5495 14.5519C99.3541 14.7187 99.9919 15.4447 99.9919 16.3963C99.9919 17.603 99.1481 18.4271 97.8332 18.4271H93.6729V10.9317ZM104.986 12.2267L103.524 15.788H106.468L104.986 12.2267ZM107.508 18.4271L106.87 16.877H103.102L102.465 18.4271H101.13L104.329 10.9317H105.644L108.843 18.4271H107.508ZM115.858 18.4271L111.561 12.8546V18.4271H110.354V10.9317H111.521L115.78 16.4159V10.9317H116.987V18.4271H115.858ZM128.624 15.4446V10.9317H129.831V15.425C129.831 16.7593 130.636 17.4558 131.911 17.4558C133.206 17.4558 133.991 16.7593 133.991 15.425V10.9317H135.198V15.4446C135.198 17.4951 133.883 18.5546 131.911 18.5546C129.959 18.5546 128.624 17.4755 128.624 15.4446ZM137.396 18.4271V10.9317H142.881V12.0305H138.603V14.081H141.988V15.1798H138.603V17.3381H142.92V18.4369H137.396V18.4271ZM96.96 21.7333H93.6729V29.2581H94.8798V26.5013H96.7637C96.8226 26.5013 97.1071 26.5013 97.166 26.4817C98.5005 26.3934 99.413 25.3829 99.413 24.1075C99.413 22.7928 98.4416 21.7333 96.96 21.7333ZM96.852 25.4025H94.8896V22.8419H96.8618C97.6272 22.8419 98.2159 23.3717 98.2159 24.1369C98.2061 24.8727 97.6174 25.4025 96.852 25.4025ZM122.805 22.8321V21.7333H116.997V22.8321H119.312V29.2581H120.49V22.8321H122.805ZM132.824 21.7333H131.636V29.2581H136.278V28.1495H132.824V21.7333ZM113.042 24.8236C111.727 24.5882 111.07 24.4018 111.09 23.7837C111.109 23.2147 111.58 22.7928 112.404 22.7045C112.591 22.6849 112.787 22.6849 112.993 22.7045C113.67 22.7438 114.367 22.9989 114.818 23.3815C114.857 23.4011 114.926 23.4403 114.946 23.4894L115.603 22.5378C114.985 21.9884 113.906 21.6058 112.826 21.6058C111.07 21.6058 109.883 22.5574 109.863 23.872C109.824 25.4221 111.237 25.736 112.552 25.9715C114.033 26.2462 114.71 26.3934 114.691 27.0507C114.671 27.6687 114.141 28.1691 113.062 28.2378H112.64C111.668 28.1789 110.903 27.8551 110.373 27.345C110.334 27.3057 110.285 27.2861 110.246 27.2371L109.569 28.2083C110.354 28.9539 111.433 29.3562 112.767 29.3562C114.691 29.3562 115.858 28.4045 115.898 27.0016C115.956 25.3338 114.455 25.0787 113.042 24.8236ZM104.584 21.5861C102.298 21.5861 100.689 23.2638 100.689 25.4613C100.689 27.6393 102.298 29.3366 104.584 29.3366C106.87 29.3366 108.48 27.6589 108.48 25.4613C108.509 23.2638 106.87 21.5861 104.584 21.5861ZM104.584 28.2181C102.955 28.2181 101.896 27.0114 101.896 25.4417C101.896 23.872 102.936 22.6653 104.584 22.6653C106.213 22.6653 107.273 23.872 107.273 25.4417C107.273 27.0114 106.242 28.2181 104.584 28.2181ZM125.661 21.7333L122.462 29.2581H123.796L124.434 27.708H128.202L128.84 29.2581H130.174L126.976 21.7627H125.661V21.7333ZM124.856 26.6092L126.318 23.0479L127.78 26.6092H124.856ZM138.799 28.1495V25.9911H141.998V24.8923H138.799V22.8321H142.881V21.7333H137.592V29.2581H142.93V28.1495H138.799ZM126.76 14.6794C126.76 12.5014 125.151 10.8042 122.864 10.8042C120.578 10.8042 118.969 12.4818 118.969 14.6794C118.969 16.8868 120.578 18.5546 122.864 18.5546C123.208 18.5546 123.522 18.5154 123.816 18.4467L124.366 19.781H125.7L124.915 18.0249C126.063 17.3479 126.76 16.1216 126.76 14.6794ZM122.864 17.4558C121.235 17.4558 120.176 16.2491 120.176 14.6794C120.176 13.1097 121.216 11.903 122.864 11.903C124.493 11.903 125.553 13.1097 125.553 14.6794C125.553 15.631 125.151 16.4551 124.473 16.9653L124.179 16.2687H122.904L123.394 17.4166C123.208 17.4362 123.031 17.4558 122.864 17.4558Z" fill="#003781"/>
<path d="M93.9756 7.6044V0.130127H95.1768V6.52826H99.1025V7.62397H93.9756V7.6044ZM104.356 1.42149L102.901 4.97275H105.831L104.356 1.42149ZM106.886 7.6044L106.251 6.05867H102.472L101.837 7.6044H100.519L103.702 0.130127H105.011L108.214 7.6044H106.886Z" fill="#003781"/>
<path d="M15.917 0.465513C20.3841 2.03528 27.7078 4.88766 31.5614 8.35262L59.7061 8.06547C60.4921 7.07001 60.7797 6.668 61.6425 5.53853C63.6747 2.82016 63.7897 0.0443553 59.4568 0.00606834C57.137 -0.0322186 20.5183 0.120931 16.2429 0.178361C15.5911 0.140074 15.0926 0.140074 15.917 0.465513ZM81.2555 9.3098L32.3283 10.2095C32.5392 12.2005 30.3919 15.0911 25.9632 17.8095C23.6817 19.207 18.5052 21.9828 0.138348 28.9319C-0.110889 29.0084 0.0233147 29.2956 0.176692 29.2573C31.9257 21.217 52.9958 15.2251 81.2555 9.84581C82.1374 9.69267 82.6743 9.3098 81.2555 9.3098ZM51.7497 18.0009L7.88388 29.0659C7.80719 29.1041 7.71133 29.2381 7.96057 29.2381L41.9335 28.1661C44.0041 28.0895 45.4995 26.4241 46.2856 25.3903L51.8263 18.1924C51.9605 18.0775 51.9605 17.9052 51.7497 18.0009Z" fill="#003781"/>
</svg>
